v -31.236506992140846 -101.92136884318147 17.110372122518136
v -29.64511188729133 -101.92136884318147 17.110372122518136
v -28.05371678244181 -101.92136884318147 17.110372122518136
v -26.462321677592293 -101.92136884318147 17.110372122518136
v -24.870926572742775 -101.92136884318147 17.110372122518136
v -23.279531467893257 -101.92136884318147 17.110372122518136
v -21.688136363043736 -101.92136884318147 17.110372122518136
v -20.096741258194218 -101.92136884318147 17.110372122518136
v -18.5053461533447 -101.92136884318147 17.110372122518136
v -16.913951048495182 -101.92136884318147 17.110372122518136
v -15.322555943645664 -101.92136884318147 17.110372122518136
v -13.731160838796146 -101.92136884318147 17.110372122518136
v -12.139765733946625 -101.92136884318147 17.110372122518136
v -10.548370629097107 -101.92136884318147 17.110372122518136
v -8.95697552424759 -101.92136884318147 17.110372122518136
v -7.365580419398071 -101.92136884318147 17.110372122518136
v -5.7741853145485535 -101.92136884318147 17.110372122518136
v -4.182790209699036 -101.92136884318147 17.110372122518136
v -2.591395104849518 -101.92136884318147 17.110372122518136
v -1.0 -101.92136884318147 17.110372122518136
v -1.3673197087098465 -98.37833521009013 17.110372122518136
v -1.722852464334185 -94.83409966981202 17.110372122518136
v -2.065516919331749 -91.28859721360645 17.110372122518136
v -2.394056486415561 -87.74175846129003 17.110372122518136
v -2.706996970053794 -84.19350995616006 17.110372122518136
v -3.0025900881391046 -80.6437749849376 17.110372122518136
v -3.2787366956278454 -77.0924753350655 17.110372122518136
v -3.5328800433324155 -73.53953473685185 17.110372122518136
v -3.761853461126293 -69.98488538330402 17.110372122518136
v -3.9616562621336016 -66.42848022113074 17.110372122518136
v -4.127111831251177 -62.8703164643838 17.110372122518136
v -4.251322470152179 -59.31048201010712 17.110372122518136
v -4.324751511813638 -55.74925163757291 17.110372122518136
v -4.333567037633792 -52.187300834260824 17.110372122518136
v -4.256367724876728 -48.62623072079897 17.110372122518136
v -4.056839699582142 -45.07005802495274 17.110372122518136
v -3.663883491310486 -41.5305238694723 17.110372122518136
v -2.897930636356392 -38.05562362208253 17.110372122518136
v -1.0 -35.14194305528825 17.110372122518136
v -2.8519384937766397 -34.36436299693345 17.110372122518136
v -4.5776521935178245 -33.33715895491957 17.110372122518136
v -6.134246441121093 -32.06833265150919 17.110372122518136
v -7.490318002567356 -30.58692831532265 17.110372122518136
v -8.6334799414281 -28.93530163810358 17.110372122518136
v -9.569631692006528 -27.157760413621215 17.110372122518136
v -10.316461490865873 -25.292433786394312 17.110372122518136
v -10.896441251048998 -23.36845122681215 17.110372122518136
v -11.332144028443485 -21.406594532848942 17.110372122518136
v -11.643982001481207 -19.421168737105276 17.110372122518136
v -11.849489749301718 -17.42186158486712 17.110372122518136
v -11.963368101575725 -15.415196268712485 17.110372122518136
v -11.997822264976428 -13.405560532610682 17.110372122518136
v -11.962967766704661 -11.395905207222437 17.110372122518136
v -11.867210659532716 -9.388210677641283 17.110372122518136
v -11.717571770653802 -7.38379752060065 17.110372122518136
v -11.519951709911219 -5.383534266691884 17.110372122518136
v -11.279343225485063 -3.3879774607034587 17.110372122518136
v -11.0 -1.397466984104489 17.110372122518136
v -11.789473684210526 -1.397466984104489 17.110372122518136
v -12.578947368421053 -1.397466984104489 17.110372122518136
v -13.368421052631579 -1.397466984104489 17.110372122518136
v -14.157894736842106 -1.397466984104489 17.110372122518136
v -14.947368421052632 -1.397466984104489 17.110372122518136
v -15.736842105263158 -1.397466984104489 17.110372122518136
v -16.526315789473685 -1.397466984104489 17.110372122518136
v -17.315789473684212 -1.397466984104489 17.110372122518136
v -18.105263157894736 -1.397466984104489 17.110372122518136
v -18.894736842105264 -1.397466984104489 17.110372122518136
v -19.684210526315788 -1.397466984104489 17.110372122518136
v -20.473684210526315 -1.397466984104489 17.110372122518136
v -21.263157894736842 -1.397466984104489 17.110372122518136
v -22.05263157894737 -1.397466984104489 17.110372122518136
v -22.842105263157897 -1.397466984104489 17.110372122518136
v -23.63157894736842 -1.397466984104489 17.110372122518136
v -24.421052631578945 -1.397466984104489 17.110372122518136
v -25.210526315789473 -1.397466984104489 17.110372122518136
v -26.0 -1.397466984104489 17.110372122518136
v -28.756299274834156 -5.9355063795369905 17.110372122518136
v -30.253190155809612 -11.073150466612631 17.110372122518136
v -31.214958880972063 -16.340820964082003 17.110372122518136
v -31.87386323023218 -21.655609693198464 17.110372122518136
v -32.33337229235667 -26.991572354973563 17.110372122518136
v -32.649452097666924 -32.33804566812478 17.110372122518136
v -32.85621669939778 -37.68990828246128 17.110372122518136
v -32.97620675443183 -43.04444452718729 17.110372122518136
v -33.02520645172587 -48.40011570527962 17.110372122518136
v -33.01476385598073 -53.75601008936995 17.110372122518136
v -32.9536221046981 -59.111571704222484 17.110372122518136
v -32.848585229344 -64.46645638779131 17.110372122518136
v -32.70506905037584 -69.82045087535748 17.110372122518136
v -32.527466432931874 -75.1734251652735 17.110372122518136
v -32.31939790373262 -80.52530340345211 17.110372122518136
v -32.08388866521807 -85.8760455273512 17.110372122518136
v -31.82349676555213 -91.22563539218433 17.110372122518136
v -31.54040791984614 -96.57407292424878 17.110372122518136
v -25.60526315789474 -4.743296575271426 17.110372122518136
v -19.289473684210527 -5.683736597639983 17.110372122518136
v -14.55263157894737 -4.524617208557449 17.110372122518136
v -22.44736842105263 -4.537354577761052 17.110372122518136
v -17.710526315789473 -3.8132465179267094 17.110372122518136
v -25.666624125167534 -96.0808677690614 17.110372122518136
v -14.526858391220905 -93.281247433857 17.110372122518136
v -8.161277971822834 -95.49790936047556 17.110372122518136
v -20.892438810618977 -97.10404556000822 17.110372122518136
v -21.67517124522702 -19.442053896093647 17.110372122518136
v -9.45522913760206 -37.731736272924266 17.110372122518136
v -18.547609484627266 -12.286834251351994 17.110372122518136
v -16.66062804400061 -18.926611594754878 17.110372122518136
v -20.07041752413122 -30.279841339563706 17.110372122518136
v -14.963786022611236 -28.235274709000592 17.110372122518136
v -22.417750733623677 -9.378424846444396 17.110372122518136
v -18.39624317820489 -65.31676364206285 17.110372122518136
v -18.6532237154684 -50.095497679437486 17.110372122518136
v -10.225984754322726 -86.64457708444422 17.110372122518136
v -4.760324221159394 -96.92874749220216 17.110372122518136
v -6.238199861314364 -39.14121421027932 17.110372122518136
v -11.731447176979593 -61.35356462382034 17.110372122518136
v -12.573927661404078 -72.33721618789161 17.110372122518136
v -11.363695475593468 -50.25352505674584 17.110372122518136
v -6.693232642652614 -89.92862166705545 17.110372122518136
v -7.323274431623389 -82.79074129307803 17.110372122518136
v -7.4971641578353605 -98.67665587224259 17.110372122518136
v -6.719598177438467 -35.86391549474722 17.110372122518136
v -8.476505304394852 -64.85549317009645 17.110372122518136
v -8.731725539571016 -57.621491278714196 17.110372122518136
v -7.93370991602745 -72.03831567456638 17.110372122518136
v -7.605082805055535 -50.33500683212247 17.110372122518136
v -5.231746872496004 -93.29199408377355 17.110372122518136
v -9.376404613953454 -45.31312743629246 17.110372122518136
v -9.559589822160373 -53.76314268742278 17.110372122518136
v -7.059383329625671 -42.607461761565375 17.110372122518136
v -15.09990250384676 -54.39261378716693 17.110372122518136
v -12.448821146873678 -53.02983545427381 17.110372122518136
v -15.013934080870344 -50.4270398613194 17.110372122518136
v -16.212304492795017 -43.441631248281006 17.110372122518136
v -16.54505757081364 -47.09421271118846 17.110372122518136
v -13.11945130511366 -45.564840401552175 17.110372122518136
v -11.509844724965024 -41.5442036830449 17.110372122518136
v -10.483695475221749 -68.6190939737714 17.110372122518136
v -6.935307723240207 -68.37935842346704 17.110372122518136
v -9.908796869263288 -77.54398568266598 17.110372122518136
v -15.073338780360896 -68.4855135169568 17.110372122518136
v -10.11367588730299 -74.36338473759929 17.110372122518136
v -6.701213085485037 -75.74046942681694 17.110372122518136
v -6.820453326473885 -79.28252746119684 17.110372122518136
v -12.682602831921896 -65.25681863922141 17.110372122518136
v -23.122243586370978 -73.59933035768654 17.110372122518136
v -15.568807851208383 -62.48598315757455 17.110372122518136
v -19.732019234479424 -70.04417711008118 17.110372122518136
v -14.665797359644802 -58.47803269065218 17.110372122518136
v -16.44908175775043 -72.11504652931335 17.110372122518136
v -16.080019569186117 -8.541131594206135 17.110372122518136
v -19.259295065999332 -8.880982362401028 17.110372122518136
v -15.265875905595363 -11.763121696448012 17.110372122518136
v -16.39020733155371 -15.261737206558141 17.110372122518136
v -20.26094533042475 -15.799073279474474 17.110372122518136
v -25.75313414563026 -15.762969767073084 17.110372122518136
v -23.01391133211392 -16.826351732823838 17.110372122518136
v -23.131352610103676 -13.069128350868745 17.110372122518136
v -26.265611340538243 -10.548776093337363 17.110372122518136
v -25.014729659125884 -7.75076284000826 17.110372122518136
v -27.92626535617715 -13.344274783064261 17.110372122518136
v -28.820075249090984 -93.74837711877748 17.110372122518136
v -21.865344841300328 -87.64373566738266 17.110372122518136
v -27.118333497597494 -88.67317224574268 17.110372122518136
v -23.73071706967491 -98.69770532534521 17.110372122518136
v -25.838124851078696 -24.863147043011217 17.110372122518136
v -25.70918491329302 -35.28610230538762 17.110372122518136
v -18.662566809824497 -24.100524770152536 17.110372122518136
v -15.306152027412928 -34.77975791359494 17.110372122518136
v -13.316554143252112 -38.110660938408735 17.110372122518136
v -18.32451387596284 -38.84233001412871 17.110372122518136
v -25.431251497399955 -61.64249176259312 17.110372122518136
v -20.36795324509746 -60.51994625831045 17.110372122518136
v -17.34455738782787 -59.98019672347797 17.110372122518136
v -25.431497766207578 -45.79153174304714 17.110372122518136
v -20.95789271875801 -46.235596581414796 17.110372122518136
v -22.740225190982706 -41.43513475138408 17.110372122518136
v -23.021697448653647 -44.27074704003641 17.110372122518136
v -10.904580687235336 -90.91673418023983 17.110372122518136
v -11.301078979455431 -94.26612645366802 17.110372122518136
v -14.081256361301485 -97.59691038236572 17.110372122518136
v -10.716006350479958 -97.69039896398844 17.110372122518136
v -8.31645938572031 -92.47887433737903 17.110372122518136
v -17.37145450727586 -95.75579464899688 17.110372122518136
v -18.797044656284708 -91.24475375053437 17.110372122518136
v -18.230171915883503 -98.78492293783839 17.110372122518136
v -14.975521664154154 -88.0801265686771 17.110372122518136
v -23.375531983129825 -92.0382168256416 17.110372122518136
v -15.956934480214327 -90.78469789938201 17.110372122518136
v -18.41736828683594 -87.81354084918516 17.110372122518136
v -16.160246969469743 -81.02406492880267 17.110372122518136
v -16.444913533588192 -84.69935051487518 17.110372122518136
v -14.757645673682806 -76.51940061704286 17.110372122518136
v -12.547402369537735 -83.15256228546002 17.110372122518136
v -24.273436551729127 -89.27291452412412 17.110372122518136
v -22.929947302503876 -94.9612840537061 17.110372122518136
v -19.157333610737236 -75.68208044035764 17.110372122518136
v -19.970281404913646 -94.09630257731648 17.110372122518136
v -20.24910834763788 -72.94512653848561 17.110372122518136
v -24.369678986700233 -80.78941461128645 17.110372122518136
v -20.311965571932234 -82.55116370650819 17.110372122518136
v -17.353546812691434 -78.1818177604102 17.110372122518136
v -22.586854724548477 -77.39547034470318 17.110372122518136
v -27.528583193797136 -76.15660306038465 17.110372122518136
v -23.50834996268375 -84.35937397566407 17.110372122518136
v -28.069670139560124 -83.57100328792787 17.110372122518136
v -27.97051065671923 -79.85129594000679 17.110372122518136
v -30.982053180989944 -83.14699504488 17.110372122518136
v -29.111249402058508 -86.40498965288172 17.110372122518136
v -26.114112434478667 -85.84615158973365 17.110372122518136
v -30.51892701317201 -77.775321570973 17.110372122518136
v -6.637963260311931 -86.32699693840637 17.110372122518136
v -8.076309407866582 -61.21987088906801 17.110372122518136
v -28.127513791512044 -19.421827363479895 17.110372122518136
v -28.630963178757032 -22.835929702812297 17.110372122518136
v -27.769549511719966 -29.94396226832601 17.110372122518136
v -29.739312090303333 -35.13040181366591 17.110372122518136
v -28.08128948080313 -40.32709982115086 17.110372122518136
v -27.637443450206593 -32.96140367997056 17.110372122518136
v -23.80886550528199 -31.747790124391624 17.110372122518136
v -27.808038943947075 -37.377070759737144 17.110372122518136
v -21.223109473819818 -35.41597856519778 17.110372122518136
v -23.19194090925571 -27.824565404080673 17.110372122518136
v -20.044991795281526 -27.035598615683615 17.110372122518136
v -22.281455743251072 -24.18912089825382 17.110372122518136
v -23.543758804538992 -38.031834772577945 17.110372122518136
v -18.190261360100006 -35.78951589008479 17.110372122518136
v -14.726111635318464 -24.30089563354087 17.110372122518136
v -16.57888435512119 -21.932501627450453 17.110372122518136
v -16.647964967011063 -31.428365924666824 17.110372122518136
v -15.546628568891437 -40.351260261600835 17.110372122518136
v -29.646019574447923 -61.72516507776528 17.110372122518136
v -27.430671911495008 -67.18792169111967 17.110372122518136
v -27.646528562847593 -56.183334280481375 17.110372122518136
v -27.492567126345904 -64.03244189534374 17.110372122518136
v -29.81088212712765 -58.5340594152652 17.110372122518136
v -22.23254435244856 -64.09001793030801 17.110372122518136
v -20.403839531467302 -55.16079007667371 17.110372122518136
v -29.6897846788447 -45.752572149978036 17.110372122518136
v -28.322253477541356 -50.90019510664114 17.110372122518136
v -27.53929545395712 -43.43895758445361 17.110372122518136
v -30.128545353697287 -48.62459694326264 17.110372122518136
v -23.498342393565554 -50.370433994410256 17.110372122518136
v -19.655301535896005 -43.020859641257935 17.110372122518136
v -26.46820609806767 -91.71406696264253 17.110372122518136
v -10.079610340755618 -80.88859113443034 17.110372122518136
v -13.152601084299587 -79.4898512817518 17.110372122518136
v -20.216740186556347 -79.42941588024954 17.110372122518136
v -29.383835956298178 -72.38969141035705 17.110372122518136
v -26.294361456071922 -73.20840904465486 17.110372122518136
v -29.661811684447066 -69.31774435022565 17.110372122518136
v -28.85788357522186 -26.622728019942198 17.110372122518136
v -30.88719432656218 -29.75964926265218 17.110372122518136
v -31.239894574505723 -40.40474107488702 17.110372122518136
v -23.896893822922472 -69.46656730700492 17.110372122518136
v -21.470038875651095 -67.27193733025871 17.110372122518136
v -26.801358696082758 -70.24459454596995 17.110372122518136
v -17.47580593661106 -56.682816225467356 17.110372122518136
v -17.98582934077038 -53.16131724766036 17.110372122518136
v -23.613315514042245 -57.86197979496795 17.110372122518136
v -24.030561961455504 -54.10892114395941 17.110372122518136
v -26.842709631532767 -53.39574117731909 17.110372122518136
v -26.114339600606282 -48.777347200872 17.110372122518136
v -20.9681009716052 -52.13061428421586 17.110372122518136
v -28.432994321009325 -98.35828368338221 17.110372122518136
v -11.934851463829007 -56.414143343407645 17.110372122518136
v -10.975695148852923 -33.47099770074816 17.110372122518136
v -13.337880412041955 -31.133551170274092 17.110372122518136
v -24.907101714815013 -21.269146688146794 17.110372122518136
f 207 210 211
f 126 140 139
f 191 188 193
f 118 126 139
f 124 117 146
f 246 94 163
f 124 140 30
f 95 163 94
f 235 263 87
f 194 143 118
f 134 136 113
f 126 143 144
f 234 236 89
f 236 173 233
f 145 144 141
f 233 88 89
f 118 139 142
f 205 250 91
f 266 101 163
f 194 118 151
f 2 266 1
f 171 138 106
f 137 136 134
f 3 266 2
f 166 4 5
f 176 264 244
f 134 119 137
f 166 5 6
f 135 136 137
f 266 4 166
f 104 7 8
f 171 268 170
f 134 113 260
f 10 11 187
f 189 196 246
f 132 150 267
f 134 133 119
f 12 182 11
f 119 129 137
f 187 11 182
f 221 224 217
f 166 7 104
f 135 137 138
f 233 237 88
f 156 158 105
f 50 108 49
f 115 103 122
f 128 22 23
f 73 99 72
f 108 156 105
f 33 125 32
f 138 131 106
f 253 217 167
f 38 40 123
f 96 77 78
f 96 76 77
f 194 203 248
f 112 149 142
f 119 133 130
f 76 96 75
f 96 99 75
f 180 120 114
f 74 75 99
f 35 129 127
f 270 158 157
f 34 130 33
f 144 145 27
f 99 73 74
f 99 71 72
f 28 126 144
f 17 122 16
f 69 97 100
f 69 100 68
f 42 123 41
f 70 71 99
f 183 181 182
f 112 142 146
f 67 100 66
f 100 65 66
f 29 140 126
f 133 267 130
f 62 63 98
f 61 62 98
f 29 30 140
f 64 98 63
f 130 34 127
f 100 67 68
f 106 116 123
f 179 245 178
f 128 103 115
f 14 183 13
f 164 186 191
f 117 214 125
f 88 237 87
f 36 131 129
f 15 122 183
f 115 122 17
f 33 130 125
f 132 133 134
f 115 17 18
f 106 131 116
f 16 122 15
f 152 98 100
f 148 112 146
f 99 97 70
f 34 35 127
f 101 189 246
f 139 146 142
f 197 166 104
f 100 98 64
f 214 117 124
f 129 131 138
f 115 18 21
f 37 116 131
f 120 23 24
f 25 213 24
f 45 269 44
f 25 26 121
f 215 80 81
f 115 21 22
f 20 21 19
f 109 231 110
f 36 37 131
f 31 32 214
f 186 199 185
f 124 30 31
f 139 140 124
f 216 82 253
f 155 156 108
f 184 180 181
f 114 120 213
f 240 85 86
f 126 28 29
f 169 110 229
f 15 183 14
f 19 21 18
f 138 137 129
f 240 86 243
f 50 51 155
f 154 54 152
f 97 99 111
f 55 98 152
f 157 80 215
f 51 52 155
f 49 108 230
f 110 231 269
f 154 155 52
f 218 83 84
f 59 60 57
f 56 98 55
f 98 56 57
f 129 35 36
f 229 46 47
f 161 78 160
f 57 60 61
f 98 57 61
f 238 257 112
f 59 57 58
f 187 8 9
f 154 52 53
f 42 43 268
f 123 42 268
f 38 123 116
f 78 79 160
f 38 39 40
f 152 54 55
f 70 97 69
f 40 41 123
f 161 99 96
f 100 64 65
f 121 114 213
f 120 184 128
f 230 105 169
f 185 187 182
f 152 153 107
f 46 110 45
f 45 110 269
f 152 100 97
f 230 48 49
f 129 119 127
f 22 128 115
f 116 37 38
f 230 108 105
f 130 127 119
f 23 120 128
f 122 103 183
f 125 130 267
f 126 118 143
f 144 143 141
f 141 247 145
f 28 144 27
f 121 26 145
f 27 145 26
f 124 146 139
f 146 117 148
f 207 201 208
f 149 151 142
f 117 150 148
f 173 238 174
f 174 238 112
f 142 151 118
f 267 117 125
f 259 174 175
f 200 149 256
f 193 202 191
f 153 152 97
f 154 152 107
f 97 111 153
f 107 153 111
f 107 155 154
f 54 154 53
f 155 107 156
f 155 108 50
f 111 159 107
f 162 159 160
f 159 111 160
f 80 157 162
f 156 107 159
f 270 157 215
f 157 158 159
f 156 159 158
f 160 111 161
f 162 160 79
f 99 161 111
f 78 161 96
f 80 162 79
f 159 162 157
f 266 163 95
f 199 189 197
f 102 190 186
f 191 202 164
f 164 202 206
f 94 165 210
f 101 266 166
f 7 166 6
f 254 82 83
f 225 226 224
f 222 219 227
f 245 232 172
f 226 167 224
f 110 169 225
f 221 223 109
f 232 138 171
f 268 171 106
f 171 170 172
f 228 109 223
f 178 242 179
f 112 148 175
f 239 259 260
f 148 150 175
f 259 239 174
f 259 150 132
f 112 175 174
f 113 136 177
f 176 177 179
f 135 245 136
f 245 172 178
f 227 172 223
f 218 222 168
f 245 179 177
f 242 178 219
f 180 114 188
f 181 180 102
f 181 102 182
f 184 181 103
f 102 185 182
f 13 182 12
f 181 183 103
f 183 182 13
f 128 184 103
f 120 180 184
f 186 185 102
f 185 104 187
f 180 188 190
f 186 164 189
f 8 187 104
f 10 187 9
f 195 192 193
f 190 191 186
f 196 189 164
f 197 189 101
f 180 190 102
f 191 190 188
f 193 188 195
f 202 192 249
f 141 143 194
f 194 151 198
f 195 188 114
f 193 192 202
f 149 200 151
f 195 247 248
f 114 121 195
f 247 195 121
f 211 164 206
f 246 196 165
f 166 197 101
f 104 185 199
f 198 147 204
f 248 203 192
f 189 199 186
f 104 199 197
f 147 198 200
f 151 200 198
f 204 205 201
f 209 207 208
f 192 203 249
f 202 201 206
f 194 198 203
f 198 204 249
f 205 204 147
f 249 201 202
f 258 252 250
f 91 92 212
f 207 206 201
f 211 196 164
f 201 205 208
f 207 209 210
f 212 205 91
f 209 208 92
f 92 93 209
f 210 209 93
f 94 210 93
f 211 210 165
f 196 211 165
f 206 207 211
f 92 208 212
f 205 212 208
f 24 213 120
f 25 121 213
f 31 214 124
f 32 125 214
f 81 216 215
f 215 216 270
f 82 216 81
f 270 216 167
f 220 83 218
f 220 221 217
f 255 222 84
f 220 218 168
f 84 85 255
f 85 240 242
f 221 220 168
f 220 217 254
f 223 221 168
f 221 109 224
f 84 222 218
f 227 219 178
f 227 223 168
f 223 172 228
f 225 224 109
f 217 224 167
f 110 225 109
f 225 169 226
f 169 105 226
f 270 226 105
f 222 227 168
f 172 227 178
f 172 170 228
f 228 170 231
f 46 229 110
f 48 229 47
f 169 229 230
f 48 230 229
f 228 231 109
f 269 170 268
f 138 232 135
f 171 172 232
f 89 90 252
f 173 235 237
f 250 90 91
f 256 147 200
f 261 174 239
f 239 260 265
f 89 236 233
f 238 236 234
f 173 237 233
f 87 237 235
f 236 238 173
f 234 256 257
f 113 177 244
f 174 261 173
f 87 241 243
f 242 240 176
f 261 239 262
f 243 264 240
f 179 242 176
f 242 219 255
f 87 243 86
f 243 241 264
f 176 244 177
f 87 263 241
f 136 245 177
f 245 135 232
f 94 246 165
f 101 246 163
f 145 247 121
f 248 141 194
f 195 248 192
f 141 248 247
f 198 249 203
f 201 249 204
f 251 250 205
f 250 251 258
f 205 147 251
f 251 147 256
f 89 252 234
f 90 250 252
f 216 253 167
f 254 253 82
f 220 254 83
f 253 254 217
f 242 255 85
f 222 255 219
f 257 256 149
f 234 252 258
f 112 257 149
f 234 257 238
f 251 256 258
f 234 258 256
f 150 259 175
f 260 259 132
f 134 260 132
f 265 260 113
f 239 265 262
f 235 173 261
f 244 264 263
f 235 261 262
f 235 262 263
f 244 263 262
f 264 176 240
f 263 264 241
f 113 244 265
f 262 265 244
f 266 95 1
f 4 266 3
f 132 267 133
f 117 267 150
f 123 268 106
f 44 268 43
f 170 269 231
f 44 269 268
f 226 270 167
f 158 270 105
v -1.0 -101.87942578789321 -12.999999999999996
v -3.117710894323203 -101.87942578789321 -12.999999999999996
v -5.235421788646406 -101.87942578789321 -12.999999999999996
v -7.353132682969608 -101.87942578789321 -12.999999999999996
v -9.470843577292811 -101.87942578789321 -12.999999999999996
v -11.588554471616014 -101.87942578789321 -12.999999999999996
v -13.706265365939213 -101.87942578789321 -12.999999999999996
v -15.823976260262416 -101.87942578789321 -12.999999999999998
v -17.94168715458562 -101.87942578789321 -12.999999999999998
v -20.05939804890882 -101.87942578789321 -12.999999999999998
v -22.177108943232025 -101.87942578789321 -12.999999999999998
v -24.294819837555227 -101.87942578789321 -12.999999999999998
v -26.412530731878427 -101.87942578789321 -12.999999999999998
v -28.53024162620163 -101.87942578789321 -12.999999999999998
v -30.647952520524832 -101.87942578789321 -13.0
v -32.765663414848035 -101.87942578789321 -13.0
v -34.88337430917124 -101.87942578789321 -13.0
v -37.00108520349444 -101.87942578789321 -13.0
v -39.11879609781764 -101.87942578789321 -13.0
v -41.236506992140846 -101.87942578789321 -13.0
v -41.54040791984614 -96.53212986896058 -13.0
v -41.82349676555212 -91.18369233689619 -13.0
v -42.08388866521807 -85.83410247206307 -13.0
v -42.319397903732614 -80.48336034816403 -13.0
v -42.527466432931874 -75.1314821099854 -13.0
v -42.70506905037583 -69.77850782006938 -13.0
v -42.848585229344 -64.42451333250324 -13.0
v -42.9536221046981 -59.0696286489344 -13.0
v -43.01476385598073 -53.71406703408187 -13.0
v -43.02520645172587 -48.35817264999152 -13.0
v -42.976206754431836 -43.00250147189921 -13.0
v -42.85621669939778 -37.647965227173195 -13.0
v -42.64945209766693 -32.29610261283664 -13.0
v -42.333372292356685 -26.94962929968547 -13.0
v -41.873863230232196 -21.61366663791037 -13.0
v -41.21495888097209 -16.2988779087939 -13.0
v -40.25319015580965 -11.031207411324536 -13.0
v -38.75629927483422 -5.893563324248897 -13.0
v -36.0 -1.3555239288162344 -13.0
v -34.68421052631579 -1.3555239288162344 -13.0
v -33.368421052631575 -1.3555239288162344 -13.0
v -32.05263157894737 -1.3555239288162344 -13.0
v -30.736842105263158 -1.3555239288162344 -13.0
v -29.421052631578945 -1.3555239288162344 -13.0
v -28.105263157894736 -1.3555239288162344 -12.999999999999998
v -26.789473684210527 -1.3555239288162344 -12.999999999999998
v -25.473684210526315 -1.3555239288162344 -12.999999999999998
v -24.157894736842103 -1.3555239288162344 -12.999999999999998
v -22.842105263157894 -1.3555239288162344 -12.999999999999998
v -21.526315789473685 -1.3555239288162344 -12.999999999999998
v -20.210526315789473 -1.3555239288162344 -12.999999999999998
v -18.89473684210526 -1.3555239288162344 -12.999999999999998
v -17.57894736842105 -1.3555239288162344 -12.999999999999998
v -16.263157894736842 -1.3555239288162344 -12.999999999999998
v -14.94736842105263 -1.3555239288162344 -12.999999999999998
v -13.631578947368418 -1.3555239288162344 -12.999999999999996
v -12.315789473684209 -1.3555239288162344 -12.999999999999996
v -11.0 -1.3555239288162344 -12.999999999999996
v -11.391767336581722 -3.370476286109024 -12.999999999999996
v -11.741014966392378 -5.3932239346873745 -12.999999999999996
v -12.042713637012756 -7.423597510970149 -12.999999999999996
v -12.290895771118496 -9.461190975648343 -12.999999999999996
v -12.478426556710716 -11.505239830317826 -12.999999999999996
v -12.596713022147632 -13.554435809596251 -12.999999999999996
v -12.635338894037602 -15.60664258550668 -12.999999999999996
v -12.5816196456427 -17.65845710452691 -12.999999999999996
v -12.420094608427746 -19.704532657659808 -12.999999999999996
v -12.132032035916655 -21.73654585006652 -12.999999999999996
v -11.695157969296616 -23.74167186699551 -12.999999999999996
v -11.084086983629316 -25.70050505496004 -12.999999999999996
v -10.272344396921383 -27.584709382972164 -12.999999999999996
v -9.237153109523337 -29.355587148322805 -12.999999999999996
v -7.9673467367635595 -30.966117940593023 -12.999999999999996
v -6.471666665388852 -32.36912500633747 -12.999999999999996
v -4.78112046897251 -33.53010677871629 -12.999999999999996
v -2.941392962647676 -34.43699519469104 -12.999999999999996
v -1.0 -35.1 -12.999999999999996
v -2.897930636356385 -38.01368056679427 -12.999999999999996
v -3.6638834913104787 -41.48858081418404 -12.999999999999996
v -4.056839699582142 -45.02811496966449 -12.999999999999996
v -4.256367724876732 -48.58428766551071 -12.999999999999996
v -4.333567037633799 -52.14535777897257 -12.999999999999996
v -4.324751511813638 -55.70730858228466 -12.999999999999996
v -4.251322470152182 -59.26853895481889 -12.999999999999996
v -4.127111831251177 -62.82837340909557 -12.999999999999996
v -3.9616562621336016 -66.38653716584247 -12.999999999999996
v -3.7618534611263144 -69.94294232801546 -12.999999999999996
v -3.5328800433324687 -73.49759168156278 -12.999999999999996
v -3.278736695627977 -77.05053227977541 -12.999999999999996
v -3.002590088139101 -80.60183192964932 -12.999999999999996
v -2.706996970053794 -84.15156690087177 -12.999999999999996
v -2.3940564864155647 -87.69981540600175 -12.999999999999996
v -2.065516919331749 -91.24665415831817 -12.999999999999996
v -1.7228524643341885 -94.79215661452373 -12.999999999999996
v -1.367319708709843 -98.33639215480184 -12.999999999999996
v -15.605263157894736 -5.169899674090406 -12.999999999999998
v -24.81578947368421 -8.499306618042064 -12.999999999999998
v -32.71052631578947 -7.604075538915677 -13.0
v -19.552631578947366 -5.248474738616465 -12.999999999999998
v -27.44736842105263 -5.381823151853271 -12.999999999999998
v -8.41198813013121 -95.2582051782753 -12.999999999999996
v -9.074656650860845 -37.97075246766366 -12.999999999999996
v -20.908078848952577 -31.049780824630062 -12.999999999999998
v -23.235964390393626 -90.38179130287841 -12.999999999999998
v -33.82451886200964 -93.74378638635638 -13.0
v -19.16966207950091 -12.147011207287102 -12.999999999999998
v -14.765120813100815 -95.60553104181133 -12.999999999999998
v -21.19773320179674 -21.985294416980715 -12.999999999999998
v -17.028000230366313 -26.48001774235398 -12.999999999999998
v -21.118253496070423 -95.98433825916584 -12.999999999999998
v -27.471386179040028 -95.60359216878125 -12.999999999999998
v -23.17045594301765 -69.24952406816092 -12.999999999999998
v -5.185008268240217 -93.33745572801048 -12.999999999999996
v -11.39783545861589 -86.70598629594984 -12.999999999999996
v -5.994361194346311 -39.15301915056379 -12.999999999999996
v -21.457575542392348 -49.99275996780444 -12.999999999999998
v -17.51154919221558 -8.59506329814838 -12.999999999999998
v -13.434225103746115 -68.70253178122157 -12.999999999999996
v -5.067929148397425 -97.20529528450633 -12.999999999999996
v -6.796301188956097 -86.30015047082561 -12.999999999999996
v -8.966985064520301 -90.65463615508125 -12.999999999999996
v -10.305355511780927 -79.3833036144904 -12.999999999999996
v -13.101323479870466 -46.304335287814766 -12.999999999999996
v -9.248116291103944 -43.026544306038794 -12.999999999999996
v -14.508392088199535 -57.69865736388903 -12.999999999999998
v -15.852189882785211 -11.532674285310012 -12.999999999999998
v -21.170262454093017 -9.050102780441774 -12.999999999999998
v -8.4828286220671 -68.42435681497767 -12.999999999999996
v -8.12312259203524 -98.60728581891806 -12.999999999999996
v -11.491300207190985 -97.21080054999022 -12.999999999999996
v -6.502976807858428 -79.08763327320747 -12.999999999999996
v -9.40311709179636 -50.254084760182636 -12.999999999999996
v -9.243102979796763 -57.590092319548646 -12.999999999999996
v -8.139954483149204 -82.63328253754639 -12.999999999999996
v -8.788793987848099 -74.28907897547897 -12.999999999999996
v -6.198748769301211 -75.99900479848608 -12.999999999999996
v -23.819517540193836 -4.988871414835395 -12.999999999999998
v -28.902386723404184 -9.279502521571162 -13.0
v -11.704018724057551 -93.3198465391968 -12.999999999999996
v -5.45026742409431 -89.6894188920592 -12.999999999999996
v -33.73818845027235 -15.105430331859807 -13.0
v -32.152638299929514 -11.501575096304856 -13.0
v -36.23710929823597 -11.855290001674092 -13.0
v -37.52038343796361 -15.427692454185426 -13.0
v -35.07484639051993 -21.773682011056323 -13.0
v -35.375480098290296 -18.2453266013218 -13.0
v -38.4411668177315 -20.2835240593535 -13.0
v -38.413710717519365 -24.76889819785275 -13.0
v -37.739051818525205 -8.976833147940857 -13.0
v -30.495887879293676 -30.23657321722788 -13.0
v -38.136392243551725 -29.880331724395305 -13.0
v -33.799555829539514 -26.553867736417487 -13.0
v -39.520683841625136 -27.392196171699943 -13.0
v -30.806654821973385 -4.769455087252197 -13.0
v -31.35052565258173 -82.68112692248467 -13.0
v -38.21142491423372 -93.67421865110012 -13.0
v -35.92215856184681 -87.66706282684878 -13.0
v -36.07890676660911 -97.5515250076863 -13.0
v -35.97637915590707 -91.0861859499742 -13.0
v -31.670090410650275 -97.59055424915142 -13.0
v -30.58412584234319 -94.4556561049477 -13.0
v -27.60356655824532 -91.16779669162932 -12.999999999999998
v -31.777883043849705 -89.88664307211286 -13.0
v -28.604089881482523 -98.63972456289095 -12.999999999999998
v -26.360322482295285 -85.54839366232547 -12.999999999999998
v -32.48557620285554 -86.2292386591309 -13.0
v -29.496185449527857 -85.2299441139413 -13.0
v -25.807937781406693 -88.61783396339408 -12.999999999999998
v -29.02234214381867 -88.34946328636191 -13.0
v -32.86688211929866 -72.13152686837266 -13.0
v -31.475404202943473 -56.26045779288272 -13.0
v -9.497904889948707 -46.636619665003565 -12.999999999999996
v -15.061898923848112 -51.846266105449125 -12.999999999999998
v -11.261226557107992 -63.175518054729636 -12.999999999999996
v -7.87215579194303 -53.89044010534544 -12.999999999999996
v -11.92842638569227 -54.49117997401867 -12.999999999999996
v -15.428258908587228 -75.0853502460731 -12.999999999999998
v -10.8079642133611 -71.24339563699279 -12.999999999999996
v -12.151791889130827 -74.32645893889438 -12.999999999999996
v -6.851294050967272 -71.44981701559875 -12.999999999999996
v -32.71163935087917 -40.55390809278881 -13.0
v -38.22024014440956 -35.147146794399475 -13.0
v -28.1455269048747 -22.485239103875806 -12.999999999999998
v -31.358662799985783 -19.680058933000588 -13.0
v -27.26999679042258 -15.155345201366087 -12.999999999999998
v -30.49830291636853 -14.380132074071375 -13.0
v -23.590842534365756 -12.73144334269714 -12.999999999999998
v -27.77044175218459 -18.812805257896123 -12.999999999999998
v -23.125973901696774 -17.585333458559546 -12.999999999999998
v -24.762285561477768 -20.975415850659882 -12.999999999999998
v -26.80248094885461 -11.86079133841953 -12.999999999999998
v -21.05003287508479 -14.937309788680478 -12.999999999999998
v -16.87831348941612 -15.719878028380029 -12.999999999999998
v -34.32986260561039 -30.352767313030157 -13.0
v -32.262583151078566 -35.25375253099274 -13.0
v -36.533896328074675 -32.53991848765061 -13.0
v -39.49041080350127 -88.3889968751578 -13.0
v -37.87792675235165 -82.96842599743349 -13.0
v -34.57994525296425 -83.6036355896769 -13.0
v -35.1444427170951 -77.65538724586528 -13.0
v -39.11051390296334 -98.65369352001726 -13.0
v -38.10896133381533 -72.30545017510339 -13.0
v -37.541321819294375 -56.3297093210831 -13.0
v -12.645188316708964 -49.58346572583658 -12.999999999999996
v -11.07792205605194 -66.43826047134631 -12.999999999999996
v -11.831046564077983 -59.81232430911592 -12.999999999999996
v -36.89976133540725 -45.736155362962535 -13.0
v -41.276439031833696 -35.02907318315322 -13.0
v -39.64233835271027 -32.49043196966209 -13.0
v -38.36447026768578 -40.42723353839133 -13.0
v -31.745340461569633 -23.445621924523536 -13.0
v -29.01482078110994 -26.45365715573766 -13.0
v -24.20348680134343 -25.798843978789606 -12.999999999999998
v -19.424900529780317 -18.58587051985312 -12.999999999999998
v -15.920868999458033 -19.135003858884243 -12.999999999999998
v -15.731822405219567 -22.91944648690213 -12.999999999999998
v -18.70425286759368 -23.853586999485117 -12.999999999999998
v -26.039739126456293 -34.62535539539431 -12.999999999999998
v -35.28554308087672 -37.66673290063873 -13.0
v -40.86750004851993 -83.10001001216655 -13.0
v -38.6824824837823 -79.19480433605261 -13.0
v -38.06538837435458 -75.77762667919902 -13.0
v -35.13389863547724 -74.42827036196738 -13.0
v -41.15727800066974 -72.40658815737453 -13.0
v -38.17268951017911 -66.97809464046682 -13.0
v -40.92146397585531 -56.368298702720175 -13.0
v -38.36899486637645 -51.027051625245306 -13.0
v -40.53791367520269 -45.70286945771712 -13.0
v -41.4277060819854 -40.35858934267744 -13.0
v -39.81098530645665 -37.745707475444874 -13.0
v -35.58345344150907 -42.516477226327986 -13.0
v -29.298777172191862 -33.477752978599774 -13.0
v -28.820450700636393 -38.21448848663643 -13.0
v -20.91818128499029 -41.465082746328456 -12.999999999999998
v -27.1666384034378 -45.371140589224105 -12.999999999999998
v -32.02203295281493 -45.85141392950819 -13.0
v -24.42141326831693 -38.75092379055037 -12.999999999999998
v -29.156403739672726 -42.0615366718072 -13.0
v -25.5657063215191 -42.15571012698749 -12.999999999999998
v -21.74392441092175 -35.32043987164692 -12.999999999999998
v -14.946574830850139 -34.43368006986534 -12.999999999999998
v -18.493658282403594 -33.739451397364256 -12.999999999999998
v -17.266652059613694 -30.20950747529522 -12.999999999999998
v -17.541166506692885 -38.28162826291911 -12.999999999999998
v -13.898769333933103 -28.552639310702887 -12.999999999999996
v -20.704746478491337 -38.308595607276445 -12.999999999999998
v -13.299962808938801 -38.342670191649106 -12.999999999999996
v -16.390771962665056 -42.88486825985152 -12.999999999999998
v -12.077280327472558 -31.911030348534418 -12.999999999999996
v -10.986681227605303 -40.43602417645194 -12.999999999999996
v -17.625496875800245 -47.364565506544665 -12.999999999999998
v -11.432991816440342 -35.365550902922564 -12.999999999999996
v -13.083748218126829 -42.99550795779653 -12.999999999999996
v -18.18397219112526 -50.65807947687282 -12.999999999999998
v -21.109202033602447 -56.66493435757345 -12.999999999999998
v -20.42204317641111 -53.28387381884931 -12.999999999999998
v -17.564977955507583 -55.624895640916726 -12.999999999999998
v -26.1912064344993 -53.87172108648176 -12.999999999999998
v -21.581671178795148 -45.70401310238151 -12.999999999999998
v -19.197270525461764 -43.90583565552354 -12.999999999999998
v -24.517051857610834 -47.93511764993403 -12.999999999999998
v -24.4610829033493 -51.15526328376988 -12.999999999999998
v -29.28560780011947 -49.99169327215806 -13.0
v -35.57443138668688 -69.61107207050935 -13.0
v -31.93714213291112 -63.423258275784164 -13.0
v -34.58089785358476 -66.03215256382155 -13.0
v -37.65120837944823 -61.666104183541464 -13.0
v -29.996062538768182 -68.03426424671684 -13.0
v -39.64708751818044 -69.659790979268 -13.0
v -41.46544422847695 -51.033088893087964 -13.0
v -34.544314581997604 -53.14599395859258 -13.0
v -34.834770035992506 -49.15902906410503 -13.0
v -32.27039900011683 -50.976273850207 -13.0
v -29.444851230562037 -47.122512447834424 -13.0
v -29.584614533498875 -53.40409527117451 -13.0
v -39.663525315558395 -64.15014616137535 -13.0
v -34.47677288561942 -59.06214305371634 -13.0
v -30.891581458668988 -59.89437577013981 -13.0
v -27.723325989530494 -57.52150877435091 -12.999999999999998
v -24.461449568196667 -56.744316827837864 -12.999999999999998
v -22.639198700182746 -62.87543649697315 -12.999999999999998
v -22.717652743264924 -59.56239557464898 -12.999999999999998
v -18.27135794076396 -60.1354656905596 -12.999999999999998
v -27.304240847634198 -62.87659087145283 -12.999999999999998
v -14.9460326154583 -62.06995959666093 -12.999999999999998
v -34.65269537340477 -62.08460466250396 -13.0
v -24.97097388876018 -65.89027440740401 -12.999999999999998
v -26.637327528204164 -68.94557313372071 -12.999999999999998
v -27.97639398643646 -65.807065880801 -12.999999999999998
v -25.594941008662378 -76.97967304026284 -12.999999999999998
v -25.232705159537588 -72.84800233235892 -12.999999999999998
v -20.189333481241043 -73.34813887219036 -12.999999999999998
v -29.245765437708663 -74.57787991271549 -13.0
v -29.06344486680403 -71.24215214812303 -13.0
v -22.912828012197053 -75.13310735651828 -12.999999999999998
v -20.320673882239944 -81.76932824146678 -12.999999999999998
v -22.395645018392024 -78.75545925183067 -12.999999999999998
v -18.271090021860743 -78.13702599464318 -12.999999999999998
v -24.228989722044474 -82.23888641143024 -12.999999999999998
v -21.78598563552532 -86.07296468732706 -12.999999999999998
v -29.442066452691044 -78.85186381367463 -13.0
v -14.320610228075491 -78.967173189939 -12.999999999999998
v -16.535239267046638 -85.45947601043989 -12.999999999999998
v -16.109368795212745 -90.61261530225956 -12.999999999999998
v -26.49435655960594 -80.02026690875338 -12.999999999999998
v -32.59100162762803 -79.67268020661747 -13.0
v -12.685640367435738 -82.771021565733 -12.999999999999996
v -19.306704712703997 -84.51584126284116 -12.999999999999998
v -19.630543889380398 -89.19668224117686 -12.999999999999998
v -19.065366431093864 -92.87742223656771 -12.999999999999998
v -25.84279549534532 -60.068279426067846 -12.999999999999998
v -18.30956548710795 -68.84742663300587 -12.999999999999998
v -18.57933960898092 -64.49017924660306 -12.999999999999998
v -21.549857593444788 -66.21874963412532 -12.999999999999998
v -15.205545208498304 -65.61769647772421 -12.999999999999998
v -16.654330718235734 -81.7949777745227 -12.999999999999998
v -14.401971915538386 -87.87734380533574 -12.999999999999998
v -12.13219066353118 -90.14213460943566 -12.999999999999996
v -15.791832599851546 -71.468883704984 -12.999999999999998
v -20.61776431194039 -70.52629222344619 -12.999999999999998
v -35.22825526983834 -4.963349745146516 -13.0
v -17.809909762830774 -98.0050278485036 -12.999999999999998
v -14.699222348794844 -98.8207090038191 -12.999999999999998
v -24.42730689506997 -98.0046454452983 -12.999999999999998
v -24.18380540958551 -93.9415774720452 -12.999999999999998
v -7.77811802060144 -61.276726673152126 -12.999999999999996
v -7.338621103875706 -64.92861330643797 -12.999999999999996
v -20.723486030915147 -27.274390853588685 -12.999999999999998
v -25.919094391761845 -30.04619301603831 -12.999999999999998
v -23.783226457451264 -32.39363605343687 -12.999999999999998
f 389 364 365
f 365 271 272
f 383 364 389
f 371 383 389
f 383 363 364
f 359 401 406
f 414 413 411
f 434 285 430
f 379 513 598
f 362 410 390
f 391 409 588
f 415 422 418
f 462 376 463
f 404 401 360
f 401 359 360
f 592 278 279
f 589 448 449
f 374 579 580
f 389 272 273
f 426 467 429
f 371 389 399
f 399 389 273
f 461 367 457
f 377 409 400
f 400 276 593
f 454 411 456
f 383 391 410
f 357 398 356
f 305 417 418
f 356 398 597
f 352 402 351
f 515 341 519
f 448 475 398
f 278 592 593
f 396 332 333
f 408 370 367
f 393 394 442
f 445 402 352
f 354 403 353
f 372 522 344
f 474 393 442
f 467 468 427
f 413 412 411
f 408 368 424
f 347 348 346
f 332 387 331
f 346 348 345
f 408 424 370
f 348 385 345
f 344 345 372
f 368 413 419
f 348 349 385
f 387 397 369
f 396 387 332
f 370 407 367
f 516 514 504
f 522 372 517
f 383 410 363
f 383 371 391
f 298 496 537
f 500 302 478
f 328 329 327
f 513 515 519
f 309 591 308
f 511 517 514
f 404 361 390
f 470 576 469
f 515 339 340
f 463 484 462
f 374 580 595
f 574 579 573
f 334 463 396
f 369 366 387
f 337 486 485
f 486 339 379
f 483 460 378
f 380 580 592
f 434 431 381
f 330 331 366
f 366 326 329
f 326 327 329
f 323 366 369
f 463 334 335
f 345 385 372
f 485 486 487
f 329 330 366
f 485 487 484
f 523 517 520
f 340 341 515
f 394 349 350
f 592 280 380
f 432 438 374
f 282 594 281
f 377 574 409
f 400 409 371
f 594 283 434
f 434 283 284
f 458 453 454
f 397 407 369
f 595 594 381
f 307 413 414
f 361 362 390
f 287 430 286
f 406 405 450
f 392 406 401
f 287 428 430
f 428 471 426
f 572 449 392
f 392 401 404
f 471 428 288
f 357 450 398
f 428 287 288
f 320 407 319
f 430 285 286
f 291 292 426
f 527 446 395
f 596 354 355
f 375 426 429
f 492 494 472
f 445 353 403
f 392 405 406
f 400 371 399
f 446 402 445
f 595 432 374
f 301 498 300
f 593 276 277
f 275 400 399
f 498 499 480
f 500 478 452
f 442 351 402
f 274 275 399
f 446 476 395
f 400 275 276
f 440 493 534
f 360 361 404
f 471 290 291
f 384 404 390
f 479 303 421
f 541 473 497
f 366 325 326
f 324 325 366
f 387 366 331
f 406 358 359
f 322 323 369
f 321 322 369
f 581 554 548
f 323 324 366
f 397 387 376
f 399 273 274
f 369 407 320
f 319 407 318
f 390 410 391
f 409 391 371
f 370 316 317
f 370 315 316
f 390 391 384
f 317 407 370
f 577 404 384
f 369 320 321
f 272 389 365
f 318 407 317
f 368 412 413
f 334 396 333
f 589 582 388
f 368 408 412
f 414 416 417
f 397 367 407
f 457 455 461
f 370 314 315
f 376 387 396
f 475 448 388
f 314 370 424
f 424 311 312
f 530 529 504
f 591 309 310
f 424 591 311
f 442 350 351
f 349 394 385
f 424 312 313
f 394 372 385
f 597 475 444
f 417 306 414
f 305 418 304
f 569 570 435
f 358 406 450
f 281 380 280
f 363 410 362
f 496 298 299
f 413 307 419
f 414 411 416
f 307 414 306
f 408 461 456
f 420 422 482
f 454 453 481
f 417 416 415
f 417 415 418
f 306 417 305
f 481 482 422
f 304 418 423
f 307 308 419
f 419 308 591
f 451 465 503
f 423 303 304
f 421 423 422
f 465 489 466
f 481 422 415
f 422 420 464
f 422 423 418
f 303 423 421
f 591 424 368
f 314 424 313
f 534 493 472
f 560 565 567
f 467 292 293
f 428 426 375
f 468 293 490
f 437 439 436
f 430 428 375
f 288 289 471
f 467 426 292
f 433 432 431
f 431 430 375
f 430 431 434
f 433 375 429
f 381 431 432
f 431 375 433
f 433 439 432
f 429 427 433
f 436 433 427
f 381 594 434
f 285 434 284
f 576 563 571
f 567 569 575
f 469 427 468
f 437 436 425
f 437 425 575
f 438 439 435
f 438 432 439
f 570 438 435
f 436 439 433
f 439 437 435
f 539 472 494
f 564 561 563
f 526 386 524
f 534 536 538
f 442 394 350
f 474 442 402
f 446 527 443
f 521 443 524
f 585 583 555
f 444 476 596
f 353 445 352
f 446 445 403
f 446 403 476
f 446 443 474
f 568 572 586
f 590 589 562
f 450 448 398
f 449 448 405
f 392 449 405
f 449 447 589
f 358 450 357
f 448 450 405
f 465 420 502
f 506 477 501
f 464 421 422
f 501 480 489
f 415 416 454
f 482 453 483
f 416 411 454
f 456 411 412
f 457 367 397
f 460 459 378
f 408 456 412
f 456 455 458
f 397 376 457
f 462 459 457
f 456 458 454
f 458 455 459
f 455 457 459
f 462 457 376
f 453 458 460
f 459 460 458
f 456 461 455
f 367 461 408
f 376 396 463
f 484 378 459
f 335 336 463
f 336 337 485
f 465 464 420
f 479 466 452
f 599 488 502
f 489 465 451
f 421 464 466
f 465 466 464
f 468 467 293
f 429 467 427
f 295 494 492
f 436 469 425
f 427 469 436
f 470 469 468
f 468 490 491
f 440 538 564
f 290 471 289
f 426 471 291
f 539 297 495
f 440 563 493
f 540 299 300
f 495 536 534
f 446 474 402
f 521 474 443
f 475 388 585
f 597 444 596
f 596 476 403
f 476 444 555
f 451 503 508
f 497 473 496
f 302 303 478
f 479 478 303
f 466 479 421
f 478 479 452
f 500 489 480
f 498 480 477
f 454 481 415
f 481 453 482
f 453 460 483
f 482 483 599
f 378 487 598
f 373 600 599
f 462 484 459
f 485 484 463
f 336 485 463
f 486 337 338
f 339 486 338
f 487 486 379
f 487 379 598
f 484 487 378
f 516 512 514
f 502 503 465
f 489 451 501
f 466 489 452
f 293 294 490
f 491 490 294
f 295 491 294
f 470 468 491
f 470 491 492
f 295 492 491
f 470 492 493
f 472 493 492
f 295 296 494
f 539 494 296
f 546 298 537
f 473 547 537
f 496 299 540
f 537 496 473
f 497 540 498
f 542 541 497
f 498 301 499
f 497 498 477
f 301 302 499
f 500 499 302
f 489 500 452
f 499 500 480
f 451 508 506
f 477 480 501
f 599 502 420
f 503 502 488
f 507 503 488
f 503 509 508
f 507 488 510
f 521 529 530
f 529 531 505
f 506 501 451
f 533 544 531
f 542 506 543
f 488 600 510
f 508 509 505
f 509 503 507
f 508 505 544
f 507 504 509
f 529 509 504
f 510 373 512
f 507 510 516
f 512 373 513
f 513 519 511
f 373 598 513
f 512 511 514
f 515 513 379
f 511 512 513
f 522 511 519
f 518 514 517
f 515 379 339
f 519 341 342
f 507 516 504
f 512 516 510
f 372 520 517
f 523 393 518
f 521 518 393
f 504 514 518
f 342 343 519
f 343 344 522
f 372 394 520
f 394 393 523
f 521 393 474
f 521 386 529
f 511 522 517
f 522 519 343
f 517 523 518
f 394 523 520
f 395 553 527
f 386 521 524
f 551 552 553
f 525 550 526
f 527 524 443
f 548 554 535
f 525 526 527
f 527 526 524
f 508 544 506
f 526 528 532
f 531 529 386
f 509 529 505
f 504 518 530
f 521 530 518
f 386 532 531
f 531 532 533
f 526 532 386
f 528 533 532
f 528 545 533
f 441 547 541
f 539 534 472
f 536 537 556
f 548 535 556
f 538 440 534
f 536 495 546
f 536 535 538
f 546 495 297
f 541 547 473
f 535 554 559
f 538 559 558
f 297 539 296
f 534 539 495
f 498 540 300
f 496 540 497
f 497 477 542
f 541 543 545
f 477 506 542
f 506 544 543
f 543 533 545
f 541 542 543
f 531 544 505
f 543 544 533
f 549 545 528
f 545 441 541
f 298 546 297
f 536 546 537
f 548 547 441
f 556 547 548
f 549 441 545
f 548 441 549
f 528 550 549
f 581 550 552
f 526 550 528
f 552 550 525
f 525 553 552
f 557 558 559
f 525 527 553
f 551 554 581
f 555 395 476
f 395 555 553
f 581 548 549
f 554 551 557
f 585 444 475
f 582 583 585
f 536 556 535
f 537 547 556
f 584 551 583
f 557 382 558
f 558 382 561
f 538 558 564
f 535 559 538
f 554 557 559
f 561 565 560
f 575 425 571
f 561 382 590
f 561 560 563
f 590 582 589
f 568 562 447
f 571 563 560
f 493 563 470
f 561 564 558
f 440 564 563
f 561 562 565
f 568 567 565
f 447 572 568
f 587 574 573
f 568 565 562
f 569 567 566
f 447 449 572
f 566 567 568
f 570 569 566
f 437 575 435
f 578 570 566
f 570 374 438
f 575 571 560
f 576 571 425
f 392 577 572
f 573 586 577
f 573 578 586
f 574 587 588
f 377 592 580
f 570 579 374
f 567 575 560
f 569 435 575
f 469 576 425
f 563 576 470
f 404 577 392
f 577 384 587
f 586 578 566
f 579 578 573
f 579 570 578
f 580 579 574
f 377 580 574
f 580 380 595
f 550 581 549
f 551 581 552
f 584 382 557
f 583 553 555
f 582 590 584
f 551 553 583
f 551 584 557
f 582 584 583
f 585 555 444
f 582 585 388
f 568 586 566
f 577 586 572
f 577 587 573
f 384 391 588
f 574 588 409
f 384 588 587
f 589 388 448
f 562 589 447
f 561 590 562
f 584 590 382
f 591 310 311
f 419 591 368
f 592 377 593
f 280 592 279
f 400 593 377
f 278 593 277
f 281 594 380
f 594 282 283
f 594 595 380
f 432 595 381
f 354 596 403
f 355 356 597
f 475 597 398
f 355 597 596
f 599 598 373
f 598 483 378
f 482 599 420
f 599 483 598
f 510 600 373
f 488 599 600
v 1.0 -101.87942578789321 17.1
v 2.591395104849518 -101.87942578789321 17.1
v 4.182790209699036 -101.87942578789321 17.1
v 5.7741853145485535 -101.87942578789321 17.1
v 7.365580419398071 -101.87942578789321 17.1
v 8.95697552424759 -101.87942578789321 17.1
v 10.54837062909711 -101.87942578789321 17.1
v 12.139765733946629 -101.87942578789321 17.1
v 13.731160838796146 -101.87942578789321 17.1
v 15.322555943645664 -101.87942578789321 17.1
v 16.913951048495182 -101.87942578789321 17.1
v 18.5053461533447 -101.87942578789321 17.1
v 20.09674125819422 -101.87942578789321 17.1
v 21.68813636304374 -101.87942578789321 17.1
v 23.279531467893257 -101.87942578789321 17.1
v 24.870926572742775 -101.87942578789321 17.1
v 26.462321677592293 -101.87942578789321 17.1
v 28.05371678244181 -101.87942578789321 17.1
v 29.64511188729133 -101.87942578789321 17.1
v 31.236506992140846 -101.87942578789321 17.1
v 31.54040791984614 -96.53212986896058 17.1
v 31.82349676555212 -91.18369233689619 17.1
v 32.08388866521807 -85.83410247206307 17.1
v 32.319397903732614 -80.48336034816403 17.1
v 32.527466432931874 -75.1314821099854 17.1
v 32.70506905037583 -69.77850782006938 17.1
v 32.848585229344 -64.42451333250324 17.1
v 32.9536221046981 -59.0696286489344 17.1
v 33.01476385598073 -53.71406703408187 17.1
v 33.02520645172587 -48.35817264999152 17.1
v 32.976206754431836 -43.00250147189921 17.1
v 32.85621669939778 -37.647965227173195 17.1
v 32.64945209766693 -32.29610261283664 17.1
v 32.333372292356685 -26.94962929968547 17.1
v 31.873863230232196 -21.61366663791037 17.1
v 31.214958880972087 -16.2988779087939 17.1
v 30.253190155809648 -11.031207411324536 17.1
v 28.756299274834216 -5.893563324248897 17.1
v 26.0 -1.3555239288162344 17.1
v 25.210526315789473 -1.3555239288162344 17.1
v 24.42105263157895 -1.3555239288162344 17.1
v 23.63157894736842 -1.3555239288162344 17.1
v 22.842105263157894 -1.3555239288162344 17.1
v 22.05263157894737 -1.3555239288162344 17.1
v 21.263157894736842 -1.3555239288162344 17.1
v 20.473684210526315 -1.3555239288162344 17.1
v 19.684210526315788 -1.3555239288162344 17.1
v 18.894736842105264 -1.3555239288162344 17.1
v 18.105263157894736 -1.3555239288162344 17.1
v 17.315789473684212 -1.3555239288162344 17.1
v 16.526315789473685 -1.3555239288162344 17.1
v 15.736842105263158 -1.3555239288162344 17.1
v 14.947368421052632 -1.3555239288162344 17.1
v 14.157894736842104 -1.3555239288162344 17.1
v 13.368421052631579 -1.3555239288162344 17.1
v 12.578947368421053 -1.3555239288162344 17.1
v 11.789473684210526 -1.3555239288162344 17.1
v 11.0 -1.3555239288162344 17.1
v 11.279343225485063 -3.3460344054152094 17.1
v 11.519951709911215 -5.3415912114036255 17.1
v 11.717571770653802 -7.341854465312389 17.1
v 11.867210659532716 -9.346267622353029 17.1
v 11.962967766704661 -11.353962151934184 17.1
v 11.99782226497643 -13.363617477322423 17.1
v 11.963368101575725 -15.373253213424226 17.1
v 11.849489749301718 -17.379918529578873 17.1
v 11.643982001481207 -19.37922568181702 17.1
v 11.332144028443484 -21.364651477560685 17.1
v 10.896441251048998 -23.32650817152389 17.1
v 10.316461490865876 -25.250490731106055 17.1
v 9.569631692006531 -27.11581735833296 17.1
v 8.633479941428103 -28.893358582815324 17.1
v 7.490318002567356 -30.544985260034395 17.1
v 6.134246441121089 -32.02638959622094 17.1
v 4.5776521935178245 -33.29521589963132 17.1
v 2.851938493776643 -34.322419941645194 17.1
v 1.0 -35.1 17.1
v 2.8979306363563886 -38.01368056679427 17.1
v 3.663883491310486 -41.48858081418404 17.1
v 4.056839699582142 -45.02811496966449 17.1
v 4.256367724876732 -48.58428766551071 17.1
v 4.333567037633795 -52.14535777897257 17.1
v 4.324751511813638 -55.70730858228466 17.1
v 4.251322470152182 -59.26853895481889 17.1
v 4.127111831251181 -62.82837340909557 17.1
v 3.9616562621335945 -66.38653716584247 17.1
v 3.7618534611263144 -69.94294232801546 17.1
v 3.5328800433324723 -73.49759168156278 17.1
v 3.278736695627977 -77.05053227977541 17.1
v 3.002590088139108 -80.60183192964932 17.1
v 2.706996970053794 -84.15156690087177 17.1
v 2.3940564864155647 -87.69981540600175 17.1
v 2.0655169193317526 -91.24665415831817 17.1
v 1.7228524643341885 -94.79215661452373 17.1
v 1.36731970870985 -98.33639215480184 17.1
v 13.763157894736842 -3.8613258855007224 17.1
v 20.078947368421055 -5.641793542351734 17.1
v 24.815789473684212 -5.318204586584507 17.1
v 16.92105263157895 -4.567175471678022 17.1
v 21.657894736842106 -3.7713034626384565 17.1
v 6.5698828669733125 -96.72300011271192 17.1
v 19.30104370576946 -93.23930437856873 17.1
v 25.666624125167534 -96.03892471377314 17.1
v 11.34406818152187 -97.15246571543263 17.1
v 16.118253496070423 -97.17197515713437 17.1
v 9.455229137602075 -37.68979321763603 17.1
v 21.052281481629173 -27.437368973197096 17.1
v 21.536897669886184 -16.92311543147102 17.1
v 16.701174738573528 -23.586353452363767 17.1
v 15.200620929424648 -31.216693773529848 17.1
v 17.84437241572556 -12.257087802562879 17.1
v 17.374068650884162 -8.413169497943176 17.1
v 17.91760758510346 -76.31209713265821 17.1
v 18.603165506540456 -61.55139129238459 17.1
v 12.061488464689647 -86.76451767907828 17.1
v 6.238199861314364 -39.09927115499106 17.1
v 13.451824911146469 -46.28466952227781 17.1
v 15.081977596904583 -10.644337060387402 17.1
v 11.252485359594878 -72.21015217405856 17.1
v 11.286294121511244 -61.29608917618672 17.1
v 7.140539742066586 -86.33051085261442 17.1
v 6.719598177438492 -35.821972439458946 17.1
v 9.764823482167838 -42.77247425191751 17.1
v 9.558387222876792 -50.250718708117056 17.1
v 7.242244679081981 -71.95183175382454 17.1
v 10.143191533910764 -79.37069385559624 17.1
v 7.5145577372747105 -61.1644848018627 17.1
v 6.5396083018405555 -42.96090009780174 17.1
v 8.363067188057151 -46.47575045187673 17.1
v 6.416799320828318 -79.08093217134856 17.1
v 9.22875130392459 -66.15042307458583 17.1
v 9.57242706797448 -56.30079314924772 17.1
v 8.019028898145692 -82.58189387316149 17.1
v 8.55292178552381 -75.71592640299255 17.1
v 11.92139927509024 -82.8551042346548 17.1
v 20.297515709891982 -84.51217273329105 17.1
v 14.600971024298374 -79.29168801584441 17.1
v 15.914474653680944 -84.66923380607714 17.1
v 4.374089117116203 -98.83723700830818 17.1
v 22.772309695108305 -10.236637019046468 17.1
v 26.315985262109404 -8.8252189846635 17.1
v 14.75285511543807 -6.78437666970774 17.1
v 6.867041955379026 -68.58254346643142 17.1
v 13.972502296210632 -75.25642855033719 17.1
v 11.362798270281841 -76.66665171650956 17.1
v 18.70835838085265 -80.52799570597256 17.1
v 16.077370150528168 -89.5590211862637 17.1
v 22.56955877489744 -7.268676961637952 17.1
v 16.092812544679227 -81.77648433836227 17.1
v 25.512623265657023 -80.12301781502481 17.1
v 18.19379538991715 -87.0409088499349 17.1
v 22.177611782259312 -81.45324433481348 17.1
v 22.330563841467193 -76.99099288214566 17.1
v 27.264746347348417 -75.16044526941783 17.1
v 21.29006388516521 -69.07245694820358 17.1
v 25.22639116463335 -77.23136343195053 17.1
v 16.228523216444643 -70.50454156687366 17.1
v 20.657663557039548 -73.18318379637657 17.1
v 16.539290595686637 -73.56356378426929 17.1
v 24.019300038696215 -73.9776879333231 17.1
v 27.370360887060656 -69.82656615935934 17.1
v 28.820075249091005 -93.70643406348931 17.1
v 24.194165633463818 -90.75028220778475 17.1
v 21.80560050130881 -87.90622454028093 17.1
v 25.941789155686326 -93.11301209040059 17.1
v 19.388275625907838 -90.02562750270388 17.1
v 26.797337366140088 -86.13898367933062 17.1
v 28.116837555923862 -89.84034708279766 17.1
v 24.88756744857339 -83.40165773202652 17.1
v 28.88135498593845 -82.650147646746 17.1
v 30.717926352781177 -88.44874633517672 17.1
v 8.78699177924588 -98.82736946228003 17.1
v 13.723990719344194 -98.9168313326074 17.1
v 20.524029684881462 -97.48337545048655 17.1
v 22.49326618525696 -94.61766811248101 17.1
v 26.58747037057985 -24.756673727918297 17.1
v 24.579666827771067 -35.28779720830776 17.1
v 26.238851129505715 -14.485778366691862 17.1
v 27.308926264643794 -11.669554615169456 17.1
v 26.00343360378139 -61.61177214611638 17.1
v 9.419074815717224 -91.80077284737209 17.1
v 22.84710080810971 -51.01628537347431 17.1
v 15.092152550758245 -57.198654990323355 17.1
v 7.700973922837754 -53.280082545469476 17.1
v 21.19195168014765 -13.402014010434723 17.1
v 13.746624335134388 -93.37812459908596 17.1
v 16.547741340603913 -94.2652846603587 17.1
v 12.705424550198712 -90.12193219882806 17.1
v 10.972463170605625 -94.26407671281235 17.1
v 29.007948389890718 -78.56650838715639 17.1
v 17.71798220111133 -66.10810238953155 17.1
v 18.484825814324843 -68.81842417095906 17.1
v 14.882994725851667 -63.19304675959407 17.1
v 15.795115620828739 -60.224027832869815 17.1
v 11.930719292154281 -64.4324520061157 17.1
v 14.215779640131279 -67.3721243533977 17.1
v 29.881788129426006 -72.54427935251094 17.1
v 30.01271498035093 -67.02741733313982 17.1
v 29.27734548417305 -63.37993470345662 17.1
v 29.20629926615825 -59.596430845235304 17.1
v 25.82180925068737 -65.86311827435095 17.1
v 30.662760781680365 -56.36534521856822 17.1
v 24.829626365400955 -56.19357255956538 17.1
v 28.101074698467556 -51.723927033317004 17.1
v 22.286973082582133 -63.58255167409684 17.1
v 24.423976404953763 -68.69350290913196 17.1
v 22.518952832773692 -59.53040800196897 17.1
v 20.713899285784446 -66.1323647397356 17.1
v 19.80464267480017 -55.182358371163005 17.1
v 19.464379955478563 -58.41601193128651 17.1
v 23.61409725278098 -98.6080981561278 17.1
v 29.990752023391885 -24.463598446182928 17.1
v 27.918509365467806 -29.893212809486634 17.1
v 29.10430650144034 -35.112991652276534 17.1
v 29.70651447775115 -32.231605303503706 17.1
v 27.066358471611892 -41.00799919230387 17.1
v 29.511938149602738 -38.55368362954322 17.1
v 26.399058373783603 -37.89747905556621 17.1
v 19.202756050233845 -40.97547078381048 17.1
v 22.48147497640475 -38.68964674656496 17.1
v 19.37958423896405 -34.42847752989423 17.1
v 19.357994420593513 -37.70377901829471 17.1
v 14.404618315062304 -39.10827530798789 17.1
v 25.926761111535054 -19.63773563745001 17.1
v 28.608725562556522 -21.503310394158177 17.1
v 9.420843353992293 -88.59036466584587 17.1
v 5.770284470782052 -89.99356193395958 17.1
v 6.388571855340874 -93.33232004429973 17.1
v 12.091817698999142 -58.2280584579611 17.1
v 14.941379692183844 -51.64105551656933 17.1
v 11.208882381494726 -68.85692185991857 17.1
v 25.245668534541384 -53.06603322332373 17.1
v 31.24092227613954 -51.03265113389855 17.1
v 24.731055741001814 -27.978455801615986 17.1
v 22.342486709479218 -31.44172392758425 17.1
v 18.801697165001855 -30.372538270189892 17.1
v 17.512309688704775 -27.05346242460918 17.1
v 13.937065630353713 -26.061458168922506 17.1
v 25.543216557098496 -32.1536235462924 17.1
v 12.377987747298517 -29.176057659362748 17.1
v 11.343480100053423 -33.57947013723419 17.1
v 12.451948481327218 -36.57757758717791 17.1
v 16.02103866729537 -35.84237341487615 17.1
v 26.129163719775832 -46.50641286898999 17.1
v 29.45012218186648 -47.90548114160281 17.1
v 11.436737883291613 -40.11986577039634 17.1
v 13.973344720891832 -42.70246330668371 17.1
v 24.543110910965233 -16.96848691453609 17.1
v 21.460255065128173 -21.95383114195556 17.1
v 28.074666140304885 -17.18241786874736 17.1
v 12.651055247722676 -49.39266294940971 17.1
v 11.649366430313574 -53.270919878178475 17.1
v 16.67159424178086 -54.37496120029863 17.1
v 18.87355659164181 -51.06694341212097 17.1
v 20.797055884781248 -46.078585124489884 17.1
v 16.466202961217157 -48.33171037372605 17.1
v 22.806491954042475 -42.65020269113246 17.1
v 25.61515518229194 -43.589722614644955 17.1
v 25.706072559427025 -49.647706034528 17.1
v 23.001551899104154 -19.46137101464275 17.1
v 17.919152765313363 -19.383941016517085 17.1
v 18.139248578234294 -15.817812671255606 17.1
v 15.197142359279068 -14.268886544492652 17.1
v 14.7805376224044 -20.751990008994337 17.1
v 15.096614571269575 -17.517363879730823 17.1
v 19.701549025014042 -24.57992940796825 17.1
v 23.211621709669174 -24.841077771592552 17.1
v 17.4124820223362 -44.33538326275208 17.1
v 28.432994321009303 -98.31634062809397 17.1
v 29.361597035832126 -44.12239627720193 17.1
f 725 734 719
f 695 601 602
f 739 694 695
f 695 602 739
f 827 826 721
f 699 696 742
f 831 725 719
f 748 698 700
f 860 849 824
f 704 789 701
f 691 692 721
f 863 665 865
f 846 847 823
f 730 689 690
f 734 688 689
f 837 838 710
f 721 733 691
f 841 673 674
f 739 602 603
f 612 705 611
f 605 772 739
f 742 661 662
f 637 638 741
f 605 606 772
f 701 828 694
f 785 778 740
f 711 785 740
f 687 688 725
f 779 740 778
f 607 704 772
f 622 762 621
f 687 725 743
f 727 731 720
f 752 746 736
f 748 700 697
f 608 704 607
f 683 684 732
f 682 724 681
f 729 717 723
f 773 610 705
f 684 727 732
f 604 605 739
f 699 742 712
f 696 660 742
f 677 678 676
f 661 742 660
f 678 722 676
f 748 712 740
f 678 679 716
f 666 865 665
f 722 841 674
f 678 716 722
f 642 698 641
f 740 712 711
f 699 697 648
f 674 675 722
f 842 841 706
f 700 698 642
f 704 701 772
f 836 707 837
f 671 840 838
f 608 609 773
f 729 724 851
f 638 639 698
f 710 838 840
f 774 702 787
f 747 786 787
f 864 669 838
f 668 669 864
f 815 634 813
f 824 849 867
f 813 634 812
f 863 718 664
f 863 865 862
f 666 667 865
f 849 861 709
f 718 662 663
f 752 753 746
f 657 659 656
f 658 659 657
f 653 696 652
f 697 699 712
f 662 718 742
f 660 696 659
f 723 847 846
f 751 738 747
f 663 664 718
f 786 704 705
f 669 670 838
f 804 859 832
f 611 705 610
f 800 799 628
f 612 613 774
f 604 739 603
f 736 746 749
f 789 828 701
f 774 613 614
f 735 738 749
f 726 735 737
f 614 811 774
f 747 738 715
f 774 705 612
f 811 617 869
f 703 762 765
f 744 737 713
f 869 617 618
f 620 869 619
f 688 734 725
f 737 744 745
f 620 621 869
f 738 735 715
f 703 811 869
f 750 769 770
f 617 811 616
f 764 763 767
f 715 733 721
f 682 784 724
f 746 737 749
f 801 761 798
f 744 759 719
f 686 687 743
f 753 713 746
f 793 794 720
f 753 758 713
f 816 858 870
f 690 691 733
f 706 716 723
f 727 684 685
f 632 633 814
f 814 817 632
f 723 728 729
f 716 728 723
f 729 728 680
f 680 681 729
f 734 730 726
f 702 774 775
f 726 730 733
f 836 821 835
f 728 679 680
f 659 696 656
f 696 655 656
f 722 716 706
f 817 631 632
f 696 653 654
f 699 652 696
f 711 712 718
f 655 696 654
f 807 805 780
f 713 759 744
f 650 651 699
f 650 699 649
f 795 796 793
f 852 783 853
f 647 648 697
f 647 697 700
f 827 692 693
f 699 648 649
f 731 727 685
f 652 699 651
f 712 742 718
f 647 700 646
f 748 741 698
f 743 725 831
f 734 689 730
f 638 698 741
f 636 637 779
f 731 685 686
f 726 733 735
f 646 700 645
f 690 733 730
f 706 841 722
f 700 644 645
f 643 644 700
f 722 675 676
f 681 724 729
f 641 698 640
f 640 698 639
f 784 683 732
f 643 700 642
f 728 716 679
f 732 727 829
f 825 636 850
f 635 812 634
f 735 733 715
f 720 829 727
f 773 705 704
f 694 739 701
f 734 726 745
f 686 743 731
f 758 757 759
f 745 719 734
f 737 745 726
f 719 745 744
f 736 764 769
f 713 737 746
f 786 747 788
f 738 751 736
f 712 748 697
f 741 748 740
f 735 749 737
f 736 749 738
f 754 790 625
f 756 753 750
f 702 766 747
f 766 763 764
f 764 767 769
f 752 750 753
f 790 754 756
f 792 796 757
f 761 797 626
f 626 798 761
f 760 758 753
f 760 754 761
f 790 756 750
f 760 756 754
f 796 792 791
f 796 831 757
f 753 756 760
f 758 755 792
f 758 759 713
f 719 759 757
f 754 625 797
f 755 758 760
f 798 626 627
f 760 761 806
f 768 771 767
f 869 762 703
f 765 762 768
f 751 764 736
f 766 764 751
f 765 768 763
f 768 767 763
f 775 763 702
f 747 766 751
f 763 766 702
f 770 623 624
f 752 769 750
f 762 622 768
f 771 768 622
f 736 769 752
f 770 769 767
f 623 770 767
f 770 624 790
f 622 623 771
f 767 771 623
f 772 701 739
f 607 772 606
f 608 773 704
f 610 773 609
f 811 614 615
f 774 811 775
f 703 765 775
f 763 775 765
f 636 778 850
f 834 835 839
f 821 843 822
f 858 857 855
f 779 637 741
f 850 848 824
f 740 779 741
f 636 779 778
f 780 799 800
f 791 792 808
f 789 786 788
f 721 826 715
f 851 852 830
f 802 803 800
f 714 807 810
f 729 851 717
f 683 784 682
f 852 784 732
f 862 785 711
f 785 708 848
f 787 786 705
f 747 715 788
f 774 787 705
f 747 787 702
f 826 788 715
f 789 788 781
f 789 781 828
f 704 786 789
f 770 790 750
f 625 790 624
f 801 808 806
f 793 791 714
f 758 792 757
f 808 792 755
f 794 793 714
f 795 793 720
f 794 714 810
f 794 783 829
f 720 731 795
f 831 796 795
f 793 796 791
f 795 731 831
f 626 797 625
f 761 754 797
f 627 799 798
f 798 799 801
f 628 799 627
f 799 780 801
f 629 802 628
f 800 628 802
f 805 801 780
f 801 805 808
f 802 629 833
f 804 832 802
f 810 783 794
f 780 800 803
f 833 804 802
f 844 870 858
f 807 780 803
f 808 714 791
f 760 806 755
f 761 801 806
f 807 803 809
f 714 805 807
f 806 808 755
f 714 808 805
f 832 809 803
f 853 854 830
f 807 809 810
f 809 853 810
f 616 811 615
f 775 811 703
f 825 812 635
f 813 812 776
f 834 813 776
f 839 814 815
f 815 814 633
f 818 817 814
f 634 815 633
f 815 813 839
f 820 816 818
f 859 782 832
f 818 814 777
f 817 816 870
f 820 818 777
f 816 817 818
f 822 819 820
f 717 851 856
f 821 820 777
f 819 855 857
f 835 834 707
f 841 842 843
f 820 821 822
f 843 710 841
f 723 846 706
f 819 822 823
f 849 860 861
f 776 812 825
f 636 825 635
f 776 825 824
f 721 692 827
f 788 826 781
f 693 694 828
f 781 826 827
f 781 827 828
f 828 827 693
f 794 829 720
f 852 829 783
f 810 853 783
f 809 854 853
f 743 831 731
f 757 831 719
f 809 832 782
f 802 832 803
f 629 630 833
f 845 833 630
f 867 834 776
f 836 835 707
f 821 777 835
f 839 835 777
f 707 866 837
f 821 836 710
f 838 837 709
f 710 836 837
f 838 709 864
f 838 670 671
f 839 777 814
f 834 839 813
f 671 672 840
f 841 672 673
f 710 840 841
f 841 840 672
f 846 842 706
f 842 823 843
f 822 843 823
f 710 843 821
f 804 833 845
f 820 819 857
f 870 630 631
f 845 844 859
f 847 723 717
f 842 846 823
f 717 856 868
f 819 823 847
f 785 848 778
f 860 848 708
f 709 866 849
f 849 866 867
f 848 850 778
f 825 850 824
f 852 851 724
f 856 851 830
f 784 852 724
f 852 732 829
f 854 809 782
f 852 853 830
f 855 854 782
f 830 854 856
f 855 782 859
f 855 819 868
f 854 855 856
f 856 855 868
f 858 855 844
f 816 820 857
f 870 844 845
f 816 857 858
f 845 859 804
f 855 859 844
f 848 860 824
f 861 860 708
f 862 861 708
f 865 667 864
f 785 862 708
f 862 711 863
f 718 863 711
f 665 863 664
f 668 864 667
f 709 861 864
f 864 861 865
f 862 865 861
f 837 866 709
f 867 866 707
f 834 867 707
f 824 867 776
f 819 847 868
f 868 847 717
f 619 869 618
f 762 869 621
f 630 870 845
f 870 631 817
v 41.236506992140846 -101.87942578789321 -13.03078279020406
v 39.11879609781764 -101.87942578789321 -13.03078279020406
v 37.00108520349444 -101.87942578789321 -13.03078279020406
v 34.88337430917124 -101.87942578789321 -13.03078279020406
v 32.765663414848035 -101.87942578789321 -13.03078279020406
v 30.647952520524832 -101.87942578789321 -13.03078279020406
v 28.530241626201633 -101.87942578789321 -13.030782790204062
v 26.41253073187843 -101.87942578789321 -13.030782790204062
v 24.294819837555227 -101.87942578789321 -13.030782790204062
v 22.177108943232025 -101.87942578789321 -13.030782790204062
v 20.05939804890882 -101.87942578789321 -13.030782790204062
v 17.94168715458562 -101.87942578789321 -13.030782790204062
v 15.82397626026242 -101.87942578789321 -13.030782790204062
v 13.706265365939217 -101.87942578789321 -13.030782790204064
v 11.588554471616014 -101.87942578789321 -13.030782790204064
v 9.470843577292811 -101.87942578789321 -13.030782790204064
v 7.353132682969608 -101.87942578789321 -13.030782790204064
v 5.235421788646406 -101.87942578789321 -13.030782790204064
v 3.117710894323203 -101.87942578789321 -13.030782790204064
v 1.0 -101.87942578789321 -13.030782790204064
v 1.36731970870985 -98.33639215480187 -13.030782790204064
v 1.7228524643341885 -94.79215661452376 -13.030782790204064
v 2.065516919331749 -91.2466541583182 -13.030782790204064
v 2.3940564864155647 -87.69981540600178 -13.030782790204064
v 2.706996970053787 -84.1515669008718 -13.030782790204064
v 3.002590088139101 -80.60183192964934 -13.030782790204064
v 3.278736695627849 -77.05053227977724 -13.030782790204064
v 3.532880043332419 -73.49759168156359 -13.030782790204064
v 3.761853461126293 -69.94294232801576 -13.030782790204064
v 3.9616562621336016 -66.38653716584248 -13.030782790204064
v 4.127111831251177 -62.82837340909555 -13.030782790204064
v 4.251322470152175 -59.26853895481887 -13.030782790204064
v 4.324751511813638 -55.70730858228466 -13.030782790204064
v 4.333567037633792 -52.145357778972574 -13.030782790204064
v 4.256367724876728 -48.58428766551072 -13.030782790204064
v 4.056839699582145 -45.02811496966449 -13.030782790204064
v 3.663883491310486 -41.48858081418405 -13.030782790204064
v 2.897930636356392 -38.01368056679428 -13.030782790204064
v 1.0 -35.1 -13.030782790204064
v 2.9413929626476687 -34.43699519469105 -13.030782790204064
v 4.78112046897251 -33.53010677871629 -13.030782790204064
v 6.471666665388845 -32.36912500633748 -13.030782790204064
v 7.967346736763549 -30.96611794059303 -13.030782790204064
v 9.237153109523334 -29.355587148322805 -13.030782790204064
v 10.272344396921376 -27.58470938297217 -13.030782790204064
v 11.084086983629309 -25.700505054960047 -13.030782790204064
v 11.695157969296606 -23.741671866995517 -13.030782790204064
v 12.132032035916655 -21.736545850066527 -13.030782790204064
v 12.420094608427746 -19.70453265765981 -13.030782790204064
v 12.581619645642704 -17.658457104526917 -13.030782790204064
v 12.635338894037602 -15.60664258550669 -13.030782790204064
v 12.596713022147632 -13.554435809596255 -13.030782790204064
v 12.478426556710716 -11.50523983031783 -13.030782790204064
v 12.290895771118503 -9.461190975648353 -13.030782790204064
v 12.042713637012753 -7.423597510970156 -13.030782790204064
v 11.741014966392378 -5.393223934687372 -13.030782790204064
v 11.391767336581722 -3.37047628610903 -13.030782790204064
v 11.0 -1.3555239288162344 -13.030782790204064
v 12.315789473684212 -1.3555239288162344 -13.030782790204064
v 13.631578947368421 -1.3555239288162344 -13.030782790204064
v 14.94736842105263 -1.3555239288162344 -13.030782790204062
v 16.263157894736842 -1.3555239288162344 -13.030782790204062
v 17.578947368421055 -1.3555239288162344 -13.030782790204062
v 18.894736842105264 -1.3555239288162344 -13.030782790204062
v 20.210526315789473 -1.3555239288162344 -13.030782790204062
v 21.526315789473685 -1.3555239288162344 -13.030782790204062
v 22.842105263157897 -1.3555239288162344 -13.030782790204062
v 24.157894736842106 -1.3555239288162344 -13.030782790204062
v 25.473684210526315 -1.3555239288162344 -13.030782790204062
v 26.789473684210527 -1.3555239288162344 -13.030782790204062
v 28.10526315789474 -1.3555239288162344 -13.030782790204062
v 29.42105263157895 -1.3555239288162344 -13.03078279020406
v 30.736842105263158 -1.3555239288162344 -13.03078279020406
v 32.05263157894737 -1.3555239288162344 -13.03078279020406
v 33.36842105263158 -1.3555239288162344 -13.03078279020406
v 34.684210526315795 -1.3555239288162344 -13.03078279020406
v 36.0 -1.3555239288162344 -13.03078279020406
v 38.756299274834156 -5.893563324248736 -13.03078279020406
v 40.25319015580961 -11.031207411324376 -13.03078279020406
v 41.21495888097206 -16.29887790879375 -13.03078279020406
v 41.873863230232175 -21.613666637910207 -13.03078279020406
v 42.33337229235667 -26.949629299685306 -13.03078279020406
v 42.649452097666924 -32.29610261283653 -13.03078279020406
v 42.85621669939778 -37.64796522717303 -13.03078279020406
v 42.97620675443183 -43.00250147189904 -13.03078279020406
v 43.02520645172587 -48.35817264999137 -13.03078279020406
v 43.01476385598073 -53.7140670340817 -13.03078279020406
v 42.9536221046981 -59.069628648934234 -13.03078279020406
v 42.848585229344 -64.42451333250305 -13.03078279020406
v 42.70506905037584 -69.77850782006922 -13.03078279020406
v 42.527466432931874 -75.13148210998524 -13.03078279020406
v 42.31939790373262 -80.48336034816386 -13.03078279020406
v 42.08388866521807 -85.83410247206294 -13.03078279020406
v 41.82349676555213 -91.18369233689607 -13.03078279020406
v 41.54040791984614 -96.53212986896052 -13.03078279020406
v 31.394736842105264 -8.499306618042073 -13.03078279020406
v 20.86842105263158 -8.499306618042064 -13.030782790204062
v 15.605263157894736 -5.169899674090406 -13.030782790204062
v 27.447368421052634 -5.987700323085435 -13.030782790204062
v 34.026315789473685 -5.381823151853276 -13.03078279020406
v 23.5 -5.3067929434927565 -13.030782790204062
v 31.706807967686437 -91.7994751039336 -13.03078279020406
v 16.882831707424018 -90.38179130287844 -13.030782790204062
v 8.41198813013121 -95.25820517827532 -13.030782790204064
v 23.308421429999356 -22.2845101322413 -13.030782790204062
v 14.836817668812472 -39.78807965937032 -13.030782790204062
v 18.832828351218126 -14.46352885745278 -13.030782790204062
v 33.82451886200964 -96.67260813291956 -13.03078279020406
v 27.47138617904003 -96.00523888094419 -13.030782790204062
v 16.88283170742402 -96.17936530745915 -13.030782790204062
v 17.74545866069875 -21.495892532662545 -13.030782790204062
v 9.031652779505837 -37.908133025326144 -13.030782790204064
v 16.288749190981747 -32.28968931888571 -13.030782790204062
v 23.170455943019142 -69.24952406816121 -13.030782790204062
v 10.091954801696794 -86.59081315524135 -13.030782790204064
v 4.936485200082558 -96.90447566602899 -13.030782790204064
v 18.992529766665292 -53.962623777641355 -13.030782790204062
v 11.387491317276776 -46.40049415757049 -13.030782790204064
v 5.985339495612521 -39.15500775323142 -13.030782790204064
v 9.115529465688741 -42.457808419112574 -13.030782790204064
v 13.975747298581016 -65.06926634263442 -13.030782790204064
v 6.637194096033504 -89.88148782607551 -13.030782790204064
v 7.267192518989248 -82.74412819127697 -13.030782790204064
v 7.850036024463897 -98.56361423377264 -13.030782790204064
v 11.552688166633647 -53.94421080134141 -13.030782790204064
v 7.553430435263191 -46.6156137994093 -13.030782790204064
v 11.108979623490004 -72.20090822462817 -13.030782790204064
v 8.850715327186649 -64.83095098124474 -13.030782790204064
v 5.3508026818423 -93.28738965842427 -13.030782790204064
v 7.721372208615357 -53.934728619633105 -13.030782790204064
v 9.678257154272575 -50.211591108375636 -13.030782790204064
v 7.166497571530378 -71.94695248940853 -13.030782790204064
v 9.624583558072718 -58.968583462178984 -13.030782790204064
v 9.35458664141629 -68.70751880359167 -13.030782790204064
v 8.805722166935851 -77.22824914947631 -13.030782790204064
v 7.170489027578686 -57.0197204631371 -13.030782790204064
v 13.270916000180083 -68.92794983946132 -13.030782790204064
v 6.360972336244668 -75.09201584977647 -13.030782790204064
v 18.261063142948824 -67.8457411386105 -13.030782790204062
v 26.131578947368418 -12.413407913393826 -13.030782790204062
v 36.555021786104064 -4.124492283204214 -13.03078279020406
v 35.869216684956015 -9.606928048347578 -13.03078279020406
v 19.8630335214779 -4.989710900579398 -13.030782790204062
v 11.516537250619283 -40.13793317382158 -13.030782790204064
v 13.529558909584203 -43.31202341812346 -13.030782790204064
v 23.40724474352608 -44.97185092631784 -13.030782790204062
v 17.209042644938922 -48.1510705278327 -13.030782790204062
v 18.626931287456372 -43.19852335212438 -13.030782790204062
v 14.582794080569236 -46.32958591176429 -13.030782790204062
v 24.638196849350017 -8.925862962840492 -13.030782790204062
v 28.067499547286975 -9.520929322713908 -13.030782790204062
v 38.576547881132186 -8.732822430630996 -13.03078279020406
v 36.737061454880575 -14.394815367064316 -13.03078279020406
v 13.798794878182672 -50.479313802115605 -13.030782790204064
v 32.74252241599494 -12.646263366931933 -13.03078279020406
v 16.93684655853149 -51.41404449433279 -13.030782790204062
v 31.516998301800506 -20.882959805659027 -13.03078279020406
v 33.24698144638054 -16.93084101987751 -13.03078279020406
v 36.72645196000776 -20.808626192859563 -13.03078279020406
v 28.17098275306695 -17.063592623719444 -13.030782790204062
v 36.400496812053696 -17.601172821773403 -13.03078279020406
v 34.10481997315675 -19.661044504560877 -13.03078279020406
v 30.65841334938843 -15.063628803305038 -13.03078279020406
v 16.624813267224123 -9.382913535362936 -13.030782790204062
v 19.231567968519823 -11.270133295669918 -13.030782790204062
v 22.441200910443506 -13.292492234362177 -13.030782790204062
v 21.935498220229135 -17.879091690768362 -13.030782790204062
v 20.69831750798088 -20.681292927887625 -13.030782790204062
v 24.844948955994205 -15.8786994796586 -13.030782790204062
v 25.459805488343957 -19.413366470604558 -13.030782790204062
v 27.7131655565789 -23.3434389101726 -13.030782790204062
v 28.44901697793193 -20.310495146157656 -13.030782790204062
v 34.07194540176598 -29.003387202579233 -13.03078279020406
v 23.766206512457394 -30.07079803689033 -13.030782790204062
v 31.67372056263212 -25.295797832376195 -13.03078279020406
v 24.71884352895217 -26.10818752840543 -13.030782790204062
v 36.02697515571001 -25.109360617077314 -13.03078279020406
v 28.935573790876425 -29.696377462602563 -13.03078279020406
v 19.198422998404737 -26.87685826024652 -13.030782790204062
v 38.96106219730236 -23.379315087081586 -13.03078279020406
v 38.39097025457587 -28.734007917306883 -13.03078279020406
v 26.256002977463403 -28.573545815212498 -13.030782790204062
v 31.340617979471386 -28.140693664753314 -13.03078279020406
v 21.754921271938578 -25.0295091292175 -13.030782790204062
v 39.59864716670712 -26.154890192824816 -13.03078279020406
v 41.20277620621213 -29.699049224856623 -13.03078279020406
v 30.653561770843318 -4.780458088169595 -13.03078279020406
v 36.567644615739916 -88.24673089605643 -13.03078279020406
v 37.628590780034756 -93.64336967113172 -13.03078279020406
v 30.778120750699177 -95.09976537227536 -13.03078279020406
v 30.954794093201738 -98.49423727870291 -13.03078279020406
v 31.70764692480264 -61.52750963877741 -13.03078279020406
v 32.86688211929947 -72.13152686837253 -13.03078279020406
v 11.304114968654257 -91.32226810978428 -13.030782790204064
v 6.494065017116149 -86.27237007150782 -13.030782790204064
v 15.26197580197951 -58.24979282177323 -13.030782790204062
v 11.540934708987102 -62.20381491038117 -13.030782790204064
v 15.000343170722587 -61.731481255926816 -13.030782790204062
v 7.4094107695369615 -61.65842857772844 -13.030782790204064
v 19.14599919469633 -78.92432356566877 -13.030782790204062
v 16.77508423045099 -73.59311807997682 -13.030782790204062
v 14.19047845636246 -71.88586959563034 -13.030782790204064
v 13.169443160910365 -76.24165962018428 -13.030782790204064
v 16.450754349846076 -76.93015947975063 -13.030782790204062
v 14.408455495916325 -82.50894465790432 -13.030782790204062
v 11.678850868626647 -79.79245853196686 -13.030782790204064
v 14.724727961454697 -79.46150854061992 -13.030782790204062
v 10.988563321813093 -83.2157159305665 -13.030782790204064
v 6.23469820276523 -79.48362872759236 -13.030782790204064
v 32.84591127729019 -40.5508991868623 -13.03078279020406
v 36.620908715682525 -35.11286017404623 -13.03078279020406
v 36.40289240212107 -31.617350578206626 -13.03078279020406
v 39.39266103794431 -33.1854312076899 -13.03078279020406
v 31.898515066000982 -33.652844050738345 -13.03078279020406
v 20.7381663996931 -37.04100645556851 -13.030782790204062
v 20.18647362993454 -46.32425293950768 -13.030782790204062
v 23.972121270709053 -50.828479953753224 -13.030782790204062
v 20.365923912199225 -50.057256632231535 -13.030782790204062
v 39.603352005257975 -13.871489428225505 -13.03078279020406
v 39.615411261218355 -19.195421262902244 -13.03078279020406
v 15.903166235501523 -12.716643367027418 -13.030782790204062
v 19.897105410651296 -30.74090067271475 -13.030782790204062
v 22.387397455114268 -33.61464142649266 -13.030782790204062
v 19.081432513735702 -34.13346243032017 -13.030782790204062
v 17.19220693776396 -37.13573296103125 -13.030782790204062
v 27.033991599308134 -37.961311273832145 -13.030782790204062
v 19.040284360976994 -39.89955091990085 -13.030782790204062
v 23.40448306586338 -40.55822692859275 -13.030782790204062
v 24.03016506247775 -36.51546298633223 -13.030782790204062
v 27.254128438986903 -33.66073665515669 -13.030782790204062
v 21.506375501398622 -42.76622746882099 -13.030782790204062
v 15.590930138092098 -24.964303746709987 -13.030782790204062
v 15.960902479773878 -28.624990080900538 -13.030782790204062
v 12.790845085262404 -30.75560008994811 -13.030782790204064
v 12.858823340426465 -35.355462924930784 -13.030782790204064
v 9.431485483507394 -34.362257035919974 -13.030782790204064
v 28.633218240559472 -26.41781906031389 -13.030782790204062
v 39.92484096760272 -88.4101428131755 -13.03078279020406
v 37.53826981907277 -82.9534762308663 -13.03078279020406
v 40.53743392192109 -93.79733258879499 -13.03078279020406
v 37.70131598989346 -97.6378641584873 -13.03078279020406
v 40.21243854881655 -99.13894157281126 -13.03078279020406
v 34.41993001286414 -93.51714919831494 -13.03078279020406
v 37.624593511726346 -61.64357144362533 -13.03078279020406
v 38.10896133381576 -72.30545017510325 -13.03078279020406
v 8.458244196535055 -92.26165810135669 -13.030782790204064
v 9.37387564410609 -89.29577942949044 -13.030782790204064
v 13.646579663394153 -88.20114751031572 -13.030782790204064
v 17.595362347859776 -85.83258611097926 -13.030782790204062
v 14.676259784334167 -85.44187731976646 -13.030782790204062
v 17.965879405912244 -82.28759264125652 -13.030782790204062
v 27.194404423282904 -83.63706367581912 -13.030782790204062
v 22.349785197271174 -84.53765113644458 -13.030782790204062
v 20.925711293625394 -88.6846138863115 -13.030782790204062
v 20.47739810293067 -93.28057830516879 -13.030782790204062
v 17.51127210745471 -93.2805783051688 -13.030782790204062
v 25.228325911247637 -91.42415983755345 -13.030782790204062
v 28.40731677230299 -92.65182213304877 -13.030782790204062
v 28.349962305653786 -88.0705626950537 -13.030782790204062
v 21.00745360133265 -97.6159284017976 -13.030782790204062
v 22.381663396519624 -91.14648224075297 -13.030782790204062
v 24.581139121411773 -87.69207900260467 -13.030782790204062
v 32.45476476966873 -84.6333338689536 -13.03078279020406
v 18.25735342124103 -98.87240907744543 -13.030782790204062
v 23.806600548536746 -95.07361633232158 -13.030782790204062
v 24.90799017497487 -98.41502350775902 -13.030782790204062
v 29.588765795800562 -85.38033475713513 -13.03078279020406
v 12.685567355499032 -95.36789545993237 -13.030782790204064
v 14.329994623620898 -92.54770154098068 -13.030782790204062
v 14.265612116930544 -98.4559832462228 -13.030782790204062
v 11.061159134657334 -98.70859238759324 -13.030782790204064
v 12.250084230455982 -57.09397847209235 -13.030782790204064
v 22.719014907211204 -61.5417293010946 -13.030782790204062
v 18.826041065843295 -60.26829013966813 -13.030782790204062
v 18.267615945179294 -57.09851494008558 -13.030782790204062
v 19.712947350662407 -64.14420623890307 -13.030782790204062
v 23.402701835672012 -65.36880385955342 -13.030782790204062
v 27.21519525107617 -62.71311594342276 -13.030782790204062
v 26.421517773815758 -56.54489202701882 -13.030782790204062
v 22.314735598262033 -56.38234093226038 -13.030782790204062
v 30.748622148318535 -66.99772322276314 -13.03078279020406
v 26.77964454932112 -67.51821025132135 -13.030782790204062
v 25.576381808664625 -59.788811307892225 -13.030782790204062
v 29.118055781972288 -58.97947011558667 -13.03078279020406
v 33.960817655873 -50.90499700703578 -13.03078279020406
v 34.117481798230344 -56.488446949036444 -13.03078279020406
v 22.03575976701442 -53.274859464797295 -13.030782790204062
v 29.968517854956108 -64.04178344354142 -13.03078279020406
v 29.207332469501463 -70.63758483579379 -13.03078279020406
v 28.659647313936205 -77.20836470757044 -13.030782790204062
v 29.965722223485844 -74.0090130101006 -13.03078279020406
v 25.010871683484773 -73.85255490812618 -13.030782790204062
v 19.91738128359037 -71.33976833597679 -13.030782790204062
v 20.31486237990842 -75.21169794670277 -13.030782790204062
v 38.23694783513084 -40.430091194591625 -13.03078279020406
v 33.4654993892822 -36.95171694476482 -13.03078279020406
v 30.37793378283358 -38.273123268622776 -13.03078279020406
v 28.25925461368245 -43.04463764097037 -13.030782790204062
v 29.57936901963904 -35.44994835599268 -13.03078279020406
v 25.338969358861952 -42.76382935134388 -13.030782790204062
v 40.6373849351342 -83.08988165354451 -13.03078279020406
v 40.942151507646926 -61.708645846957815 -13.03078279020406
v 41.15727800067003 -72.40658815737439 -13.03078279020406
v 37.81748917044336 -77.62835292024985 -13.03078279020406
v 33.247887111317624 -77.21516089745012 -13.03078279020406
v 35.765542244665355 -74.8465605511824 -13.03078279020406
v 35.28460054531562 -80.16542456210055 -13.03078279020406
v 30.94856954076902 -80.72081203367121 -13.03078279020406
v 38.1726895101791 -66.97809464046665 -13.03078279020406
v 23.990068715200103 -79.88052706361142 -13.030782790204062
v 35.49940800292126 -85.31522892251246 -13.03078279020406
v 32.87750398972327 -88.29956086647857 -13.03078279020406
v 38.88537971256188 -51.02805844087871 -13.03078279020406
v 30.24959709887268 -53.803051759547316 -13.03078279020406
v 31.10336699198656 -56.70156599303769 -13.03078279020406
v 26.783381517567967 -53.00686806378168 -13.030782790204062
v 28.303706516254376 -48.1416612399546 -13.030782790204062
v 33.17269114310173 -53.72103364776589 -13.03078279020406
v 30.656045381286766 -50.49824171195403 -13.03078279020406
v 38.95421268726867 -56.34583958495659 -13.03078279020406
v 34.69991314368543 -59.8627434935974 -13.03078279020406
v 25.994289434478972 -70.78991867903642 -13.030782790204062
v 41.342487065244015 -40.36049901963927 -13.03078279020406
v 38.432258678099295 -45.72213435543618 -13.03078279020406
v 39.41888926477742 -37.166676909811414 -13.03078279020406
v 39.46705862753813 -75.04924864065728 -13.03078279020406
v 41.25300550392922 -67.06066386657703 -13.03078279020406
v 35.5744313866875 -69.61107207050941 -13.03078279020406
v 34.45494610094834 -64.82833332496118 -13.03078279020406
v 33.565195898343966 -67.55898234452818 -13.03078279020406
v 24.51072222156431 -82.68132998093239 -13.030782790204062
v 21.15415431063669 -81.49911474788314 -13.030782790204062
v 23.278619260938072 -76.6596274447056 -13.030782790204062
v 27.320600433532043 -80.2844964027071 -13.030782790204062
v 41.819923729289115 -51.033780035567744 -13.03078279020406
v 25.072113797529326 -47.766828890921616 -13.030782790204062
v 32.59565321042637 -45.55552489774846 -13.03078279020406
v 41.858848629957144 -56.37900035149169 -13.03078279020406
v 36.661485120957856 -53.71618042827048 -13.03078279020406
v 40.10410877050859 -53.67161935661779 -13.03078279020406
v 41.5013009814914 -45.694055308226574 -13.03078279020406
v 36.483213896540946 -48.56089108871371 -13.03078279020406
v 35.60163105905669 -43.176977240304716 -13.03078279020406
v 29.685825524995032 -45.58090193873365 -13.03078279020406
v 31.193640985206933 -42.97684680716167 -13.03078279020406
v 16.550458547594545 -17.710868892727174 -13.030782790204062
v 15.146732453554474 -54.59849670286845 -13.030782790204062
f 1135 1127 979
f 1012 1023 1025
f 1111 1059 1110
f 991 1067 1068
f 1008 1005 1079
f 1110 1059 964
f 1070 1074 1164
f 978 874 875
f 1183 956 1205
f 1034 1013 967
f 966 970 1012
f 1073 997 1072
f 1199 1151 1158
f 948 970 1011
f 947 948 1011
f 1172 1197 1179
f 1023 949 1089
f 1171 962 963
f 872 1111 1112
f 1039 1040 1037
f 873 1111 872
f 997 1073 1005
f 991 1009 1007
f 978 1111 874
f 877 979 1061
f 995 1006 1000
f 896 1079 993
f 1060 1061 979
f 1006 1003 1069
f 875 876 1061
f 878 879 1136
f 997 1002 1004
f 991 1004 998
f 1125 1130 980
f 1134 1130 881
f 1066 1142 1217
f 997 1005 1008
f 1140 1134 883
f 901 1069 998
f 899 1002 898
f 1007 1072 997
f 877 878 1136
f 997 1008 1002
f 1172 958 959
f 1025 1028 1033
f 918 919 981
f 896 993 895
f 1002 899 1004
f 941 942 1057
f 1010 1021 1033
f 889 986 888
f 994 986 974
f 955 1193 954
f 985 1117 1065
f 946 1011 970
f 970 944 945
f 988 990 1015
f 1191 1190 1114
f 911 989 908
f 966 969 1057
f 970 945 946
f 990 989 982
f 1012 970 948
f 995 1001 1024
f 1194 1211 1183
f 1026 1217 1024
f 990 988 996
f 944 970 1057
f 1057 969 941
f 1006 902 903
f 992 1065 1117
f 941 969 940
f 969 939 940
f 999 974 986
f 943 1057 942
f 1068 1144 1146
f 1008 898 1002
f 938 939 971
f 971 1013 936
f 1138 1141 974
f 996 1001 905
f 935 1013 934
f 1013 933 934
f 1142 1003 1006
f 935 936 1013
f 888 994 887
f 939 969 971
f 1079 897 1008
f 1041 1046 975
f 1014 990 982
f 1141 1140 884
f 1173 1115 960
f 901 998 900
f 1000 1001 995
f 988 1019 1024
f 1141 886 994
f 986 994 888
f 904 905 1001
f 891 892 986
f 886 887 994
f 1142 1006 995
f 1006 903 1000
f 967 1036 1035
f 904 1001 1000
f 1013 1034 968
f 996 905 906
f 1012 948 1022
f 991 998 1067
f 967 1013 971
f 937 938 971
f 1000 903 904
f 990 907 989
f 963 964 1108
f 990 906 907
f 894 992 893
f 895 1065 894
f 1119 1123 1124
f 985 1065 993
f 1046 1054 975
f 893 999 892
f 890 891 889
f 1124 1125 973
f 892 999 986
f 911 982 989
f 1138 1064 1139
f 1076 993 1079
f 1045 1041 1027
f 1113 1060 972
f 1037 1038 1216
f 1004 900 998
f 1005 1073 1076
f 1154 1062 1148
f 1177 1178 1175
f 978 1059 1111
f 1041 975 1040
f 889 891 986
f 893 992 999
f 989 907 908
f 971 1020 967
f 1035 1091 1034
f 1106 1104 1105
f 1034 924 925
f 1058 1059 1113
f 1051 1043 1047
f 919 1216 981
f 1136 880 1130
f 921 922 1091
f 968 1034 925
f 1001 996 988
f 931 968 930
f 927 929 930
f 997 1004 1007
f 1140 883 884
f 919 920 1216
f 931 932 968
f 927 968 926
f 925 926 968
f 930 968 927
f 992 1116 999
f 1091 1216 921
f 949 1023 1012
f 1104 913 914
f 1104 1106 913
f 971 936 937
f 910 908 909
f 908 910 911
f 1091 923 1034
f 933 968 932
f 915 1103 1104
f 1011 946 947
f 881 882 1134
f 918 1102 917
f 966 1021 969
f 1116 1064 974
f 1014 1015 990
f 966 1025 1021
f 1105 982 1106
f 916 1102 1103
f 917 1102 916
f 927 928 929
f 902 1006 1069
f 1106 911 912
f 981 1102 918
f 897 898 1008
f 991 1007 1004
f 1140 1141 1138
f 899 900 1004
f 990 996 906
f 933 1013 968
f 1105 1014 982
f 1014 976 1015
f 1018 1015 976
f 988 1015 1019
f 976 1095 1097
f 1208 1190 1210
f 1017 1019 1018
f 1088 1026 1017
f 983 1094 1095
f 1018 1101 1086
f 1018 1019 1015
f 1019 1017 1024
f 969 1020 971
f 1020 1010 1036
f 1010 1020 1021
f 969 1021 1020
f 948 949 1022
f 949 1012 1022
f 951 1090 950
f 1012 1025 966
f 1024 1001 988
f 1026 1024 1017
f 1025 1023 1028
f 1025 1033 1021
f 1086 1206 1088
f 1145 1217 987
f 1028 1023 1031
f 1047 1043 1045
f 1090 1031 950
f 1028 1027 1030
f 1029 1050 1047
f 1027 1028 1032
f 1040 1042 1041
f 975 1038 1037
f 1031 1023 1089
f 1032 1031 1029
f 1031 1032 1028
f 1032 1029 1047
f 1028 1030 1033
f 1010 1033 1030
f 1035 1034 967
f 923 924 1034
f 967 1020 1036
f 1091 1035 977
f 1039 1010 1030
f 977 1035 1036
f 977 1036 1037
f 1039 1037 1036
f 1038 975 1054
f 1038 981 1216
f 1010 1039 1036
f 1040 1039 1030
f 1042 1030 1027
f 1037 1040 975
f 1047 1045 1027
f 981 1038 1054
f 1030 1042 1040
f 1027 1041 1042
f 1195 1165 1081
f 1101 1097 1098
f 1045 1053 1107
f 1046 1052 1044
f 1027 1032 1047
f 1045 1043 1053
f 1048 1107 1053
f 1044 1049 1054
f 1029 1090 1050
f 1050 1055 1047
f 1082 1043 1051
f 1084 1169 1100
f 1044 1092 1049
f 916 1103 915
f 952 1055 951
f 1050 951 1055
f 1056 1051 1055
f 1053 1084 1048
f 1107 1046 1041
f 1100 1052 1048
f 1084 1053 1043
f 1107 1048 1052
f 1044 1054 1046
f 1054 1049 981
f 1056 1055 952
f 1047 1055 1051
f 952 953 1056
f 1083 1082 1051
f 944 1057 943
f 966 1057 970
f 1124 973 1119
f 1109 1171 1108
f 1113 1059 978
f 1108 1059 1058
f 1061 1060 978
f 1128 979 1127
f 875 1061 978
f 1061 876 877
f 1009 1146 1147
f 1088 987 1026
f 1171 1174 962
f 1158 1152 1148
f 1064 1117 1118
f 973 1126 1139
f 894 1065 992
f 895 993 1065
f 1068 1066 1144
f 1066 1068 1067
f 1069 1067 998
f 1067 1003 1142
f 1144 1145 1150
f 991 1068 1146
f 902 1069 901
f 1067 1069 1003
f 1192 1162 984
f 1139 1118 973
f 1009 1071 1072
f 984 1163 1009
f 1009 1072 1007
f 1072 1071 1073
f 1071 1074 1073
f 1076 1073 1077
f 1164 1074 1071
f 1070 1121 1077
f 1118 1119 973
f 993 1076 1078
f 1077 1073 1074
f 1076 1075 1078
f 1070 1077 1074
f 1075 1076 1077
f 1078 1075 1120
f 993 1078 985
f 897 1079 896
f 1076 1079 1005
f 1100 1099 1093
f 1043 1082 1084
f 1056 953 1083
f 1083 954 1195
f 1083 1051 1056
f 1082 1081 1084
f 954 1083 953
f 1081 1082 1083
f 1081 1166 1084
f 1170 1101 1098
f 1094 1092 1093
f 1093 1085 1094
f 1016 1206 1086
f 1017 1018 1086
f 1016 1101 1170
f 1153 1148 1143
f 1086 1088 1017
f 1088 1087 1157
f 949 950 1089
f 1031 1089 950
f 1050 1090 951
f 1031 1090 1029
f 1091 977 1216
f 923 1091 922
f 1092 1044 1093
f 1103 1092 983
f 1052 1100 1044
f 1167 1169 1166
f 1095 1094 1085
f 1092 1094 983
f 1097 1095 1085
f 1014 1105 976
f 1167 1168 1096
f 1085 1093 1099
f 1097 1085 1098
f 976 1097 1018
f 1099 1098 1085
f 1170 1096 1168
f 1093 1044 1100
f 1098 1099 1096
f 1084 1100 1048
f 1096 1099 1100
f 1086 1101 1016
f 1097 1101 1018
f 981 1049 1102
f 1102 1049 1103
f 1092 1103 1049
f 1103 983 1104
f 983 1105 1104
f 915 1104 914
f 983 1095 1105
f 976 1105 1095
f 911 1106 982
f 913 1106 912
f 1046 1107 1052
f 1045 1107 1041
f 1059 1108 964
f 1108 1058 1181
f 1182 1129 1137
f 1173 1196 1115
f 964 965 1110
f 1111 1110 965
f 1111 965 1112
f 874 1111 873
f 965 871 1112
f 872 1112 871
f 1060 1113 978
f 1113 972 1182
f 1115 1179 1197
f 1185 1149 1184
f 962 1174 1196
f 1179 1200 1199
f 999 1116 974
f 1117 1116 992
f 1118 1117 985
f 1116 1117 1064
f 1120 985 1078
f 1119 1118 1120
f 1121 1119 1120
f 1121 1123 1119
f 1120 1118 985
f 1121 1120 1075
f 1077 1121 1075
f 1201 1202 1180
f 1162 1192 1161
f 1182 1133 1181
f 1202 1121 1070
f 1129 1128 1127
f 1129 1132 1122
f 1126 1125 980
f 1131 1125 1124
f 1130 1135 1136
f 980 1138 1139
f 973 1125 1126
f 1132 1129 1127
f 1060 1128 972
f 979 1128 1060
f 1127 1131 1132
f 1129 1122 1137
f 972 1128 1129
f 1135 1130 1125
f 880 881 1130
f 1132 1131 1124
f 1135 1131 1127
f 1124 1123 1132
f 1132 1123 1201
f 1204 1178 1122
f 1133 1177 1181
f 883 1134 882
f 980 1130 1134
f 1135 1125 1131
f 1136 1135 979
f 1136 979 877
f 1136 879 880
f 1178 1137 1122
f 1182 1137 1133
f 1138 980 1140
f 974 1064 1138
f 1139 1064 1118
f 980 1139 1126
f 1140 980 1134
f 1141 884 885
f 886 1141 885
f 1141 994 974
f 1217 1142 995
f 1067 1142 1066
f 1157 1149 1150
f 1009 1147 984
f 1145 1144 1066
f 1146 1144 1143
f 1217 1145 1066
f 1145 987 1150
f 1146 1143 1147
f 1146 1009 991
f 1143 1148 1147
f 984 1147 1152
f 1143 1144 1150
f 1158 1148 1062
f 1206 1170 1168
f 1153 1154 1148
f 1157 1150 987
f 1150 1149 1153
f 1199 1114 1179
f 1151 1159 1152
f 1148 1152 1147
f 1151 1200 1159
f 1150 1153 1143
f 1153 1149 1154
f 1188 1185 1184
f 1062 1154 1185
f 1187 1186 1087
f 1165 1194 1213
f 1209 1188 1155
f 1199 1191 1114
f 1088 1157 987
f 1157 1087 1186
f 1199 1158 1062
f 1152 1158 1151
f 1161 1159 1063
f 1152 1159 1192
f 1175 1160 1161
f 1122 1132 1201
f 1115 1176 1063
f 1161 1160 1162
f 1203 1160 1180
f 1164 1071 1163
f 1162 1163 984
f 1071 1009 1163
f 1163 1162 1164
f 1203 1164 1162
f 955 1211 1194
f 1165 1080 1166
f 1165 1166 1081
f 1167 1166 1080
f 1080 1215 1167
f 1096 1100 1169
f 1214 1207 1189
f 1186 1187 1189
f 1166 1169 1084
f 1096 1169 1167
f 1096 1170 1098
f 1168 1214 1206
f 1108 1171 963
f 1174 1171 1109
f 1172 959 1197
f 1190 1172 1114
f 960 961 1173
f 1196 1173 961
f 1177 1175 1174
f 1196 1176 1115
f 1063 1175 1161
f 1174 1109 1177
f 1174 1175 1176
f 1063 1176 1175
f 1181 1177 1109
f 1178 1177 1133
f 1178 1133 1137
f 1160 1175 1178
f 1198 1115 1063
f 1172 1179 1114
f 1070 1164 1203
f 1160 1204 1180
f 1108 1181 1109
f 1182 1181 1058
f 1113 1182 1058
f 1129 1182 972
f 1205 1210 1183
f 1165 1193 1194
f 1186 1184 1149
f 1188 1184 1189
f 1185 1156 1191
f 1149 1185 1154
f 1157 1186 1149
f 1087 1206 1187
f 1214 1215 1207
f 1189 1155 1188
f 1209 1155 1183
f 1185 1188 1156
f 1186 1189 1184
f 1189 1187 1214
f 1190 958 1172
f 1156 1188 1209
f 1185 1191 1062
f 1190 1191 1156
f 1152 1192 984
f 1161 1192 1159
f 1194 1193 955
f 1195 1193 1165
f 1183 1155 1212
f 1207 1213 1212
f 1083 1195 1081
f 1193 1195 954
f 962 1196 961
f 1176 1196 1174
f 959 960 1197
f 1115 1197 960
f 1063 1159 1200
f 1179 1115 1198
f 1199 1062 1191
f 1200 1179 1198
f 1063 1200 1198
f 1151 1199 1200
f 1202 1201 1123
f 1204 1201 1180
f 1121 1202 1123
f 1070 1180 1202
f 1160 1203 1162
f 1070 1203 1180
f 1178 1204 1160
f 1201 1204 1122
f 956 957 1205
f 1210 1205 957
f 1206 1087 1088
f 1170 1206 1016
f 1213 1080 1165
f 1189 1207 1155
f 957 958 1208
f 958 1190 1208
f 1210 1209 1183
f 1156 1209 1190
f 1208 1210 957
f 1209 1210 1190
f 955 956 1211
f 1183 1211 956
f 1207 1212 1155
f 1194 1183 1212
f 1212 1213 1194
f 1215 1213 1207
f 1206 1214 1187
f 1215 1214 1168
f 1167 1215 1168
f 1213 1215 1080
f 921 1216 920
f 1216 977 1037
f 1024 1217 995
f 987 1217 1026
